<?xml version="1.0" standalone="no"?>
<!-- Generator: Adobe Fireworks 10, Export SVG Extension by Aaron Beall (http://fireworks.abeall.com) . Version: 0.6.1  -->
<!DOCTYPE svg PUBLIC "-//W3C//DTD SVG 1.1//EN" "http://www.w3.org/Graphics/SVG/1.1/DTD/svg11.dtd">
<svg id="Untitled-Page%201" viewBox="0 0 16 16" style="background-color:#ffffff00" version="1.1"
	xmlns="http://www.w3.org/2000/svg" xmlns:xlink="http://www.w3.org/1999/xlink" xml:space="preserve"
	x="0px" y="0px" width="16px" height="16px"
>
	<g id="Layer%201">
		<path d="M 4.61 2.61 C 5.3201 2.2218 7.1335 2 8 2 C 10.7615 2 14 5.2385 14 8 C 14 8.8665 13.7782 10.6799 13.39 11.39 L 4.61 2.61 ZM 2 8 C 2 7.1336 2.2222 5.3205 2.61 4.61 L 11.39 13.39 C 10.6796 13.7777 8.8665 14 8 14 C 5.2385 14 2 10.7615 2 8 ZM 0 8 C 0 12.4183 3.5817 16 8 16 C 12.4183 16 16 12.4183 16 8 C 16 3.5817 12.4183 0 8 0 C 3.5817 0 0 3.5817 0 8 Z" fill="#ffffff"/>
	</g>
</svg>