<?xml version="1.0" standalone="no"?>
<!-- Generator: Adobe Fireworks 10, Export SVG Extension by Aaron Beall (http://fireworks.abeall.com) . Version: 0.6.1  -->
<!DOCTYPE svg PUBLIC "-//W3C//DTD SVG 1.1//EN" "http://www.w3.org/Graphics/SVG/1.1/DTD/svg11.dtd">
<svg id="Untitled-Page%201" viewBox="0 0 42 42" style="background-color:#ffffff00" version="1.1"
	xmlns="http://www.w3.org/2000/svg" xmlns:xlink="http://www.w3.org/1999/xlink" xml:space="preserve"
	x="0px" y="0px" width="42px" height="42px"
>
	<g id="Layer%201">
		<g>
			<path opacity="0.702" d="M 21.0699 13.85 L 19.327 15.3065 L 20.7778 17.7679 L 22.915 16.95 C 23.1282 17.1834 23.3533 17.4054 23.59 17.615 L 22.7889 19.69 L 25.255 21.1393 L 26.71 19.41 C 27.0677 19.5278 27.4337 19.623 27.81 19.695 L 28.1705 21.8207 L 31.0326 21.8207 L 31.4 19.65 C 31.7398 19.5767 32.0705 19.486 32.395 19.375 L 33.7684 21.0089 L 36.2355 19.5616 L 35.47 17.57 C 35.7062 17.3577 35.9327 17.1311 36.145 16.895 L 38.1895 17.6822 L 39.6422 15.222 L 37.955 13.81 C 38.0739 13.4592 38.1707 13.0989 38.245 12.73 L 40.5 12.3859 L 40.5 9.5303 L 38.245 9.185 C 38.1664 8.7982 38.0616 8.4218 37.935 8.055 L 39.6779 6.6025 L 38.2272 4.141 L 36.09 4.96 C 35.907 4.7598 35.7154 4.5678 35.515 4.385 L 36.3475 2.2249 L 33.8816 0.7754 L 32.4 2.535 C 32.0612 2.4187 31.7156 2.3249 31.36 2.25 L 30.966 0 L 28.1039 0 L 27.715 2.235 C 27.3445 2.3097 26.9821 2.4056 26.63 2.525 L 25.2566 0.8884 L 22.7896 2.3358 L 23.555 4.32 C 23.3286 4.5224 23.1147 4.7357 22.91 4.96 L 20.9592 4.2125 L 19.5063 6.6727 L 21.09 7.995 C 20.9575 8.37 20.8469 8.7588 20.765 9.155 L 18.7258 9.5071 L 18.7258 12.3626 L 20.76 12.715 C 20.8382 13.1039 20.9427 13.4813 21.0699 13.85 Z" fill="#ffffff"/>
			<path d="M 20.565 12.475 L 19.9907 9.0759 L 15.6846 9.0759 L 15.115 12.45 C 14.5536 12.5634 14.0038 12.714 13.47 12.895 L 11.4006 10.4293 L 7.6887 12.6072 L 8.84 15.6 C 8.5011 15.9028 8.1765 16.2247 7.87 16.56 L 4.9348 15.4308 L 2.7488 19.1322 L 5.13 21.125 C 4.9304 21.6897 4.7679 22.2737 4.645 22.87 L 1.5 23.3969 L 1.5 27.693 L 4.635 28.22 C 4.7533 28.8063 4.908 29.3789 5.1 29.935 L 2.4791 32.1224 L 4.662 35.8257 L 7.875 34.595 C 8.196 34.9461 8.5336 35.2796 8.89 35.595 L 7.6879 38.7175 L 11.3981 40.8983 L 13.585 38.295 C 14.1193 38.4706 14.6681 38.6122 15.23 38.72 L 15.7847 42 L 20.0908 42 L 20.655 38.655 C 21.1627 38.5445 21.6606 38.4057 22.145 38.24 L 24.2071 40.7018 L 27.9189 38.5242 L 26.765 35.525 C 27.1201 35.2061 27.4558 34.8696 27.775 34.515 L 30.8586 35.6967 L 33.0446 31.9952 L 30.5 29.87 C 30.6781 29.3456 30.8273 28.8065 30.94 28.255 L 34.2097 27.7281 L 34.2097 23.4318 L 30.94 22.905 C 30.8228 22.3273 30.6693 21.7635 30.48 21.215 L 33.0981 19.0267 L 30.9155 15.3233 L 27.705 16.555 C 27.4286 16.2527 27.1379 15.9609 26.835 15.685 L 28.0875 12.4405 L 24.3776 10.2595 L 22.15 12.91 C 21.6349 12.7335 21.106 12.5887 20.565 12.475 Z" fill="#ffffff"/>
		</g>
	</g>
</svg>