<?xml version="1.0" standalone="no"?>
<!-- Generator: Adobe Fireworks 10, Export SVG Extension by Aaron Beall (http://fireworks.abeall.com) . Version: 0.6.1  -->
<!DOCTYPE svg PUBLIC "-//W3C//DTD SVG 1.1//EN" "http://www.w3.org/Graphics/SVG/1.1/DTD/svg11.dtd">
<svg id="Untitled-Page%201" viewBox="0 0 42 42" style="background-color:#ffffff00" version="1.1"
	xmlns="http://www.w3.org/2000/svg" xmlns:xlink="http://www.w3.org/1999/xlink" xml:space="preserve"
	x="0px" y="0px" width="42px" height="42px"
>
	<g id="Layer%201">
		<g id="1407008585_equipment">
			<path d="M 36.2931 34.0426 C 37.5104 34.0426 38.4979 35.0255 38.4979 36.2392 C 38.4979 37.4512 37.5111 38.4342 36.2931 38.4342 C 35.0781 38.4342 34.0897 37.4512 34.0897 36.2392 C 34.0897 35.0248 35.0773 34.0426 36.2931 34.0426 L 36.2931 34.0426 ZM 24.751 30.1579 L 31.3927 36.7802 L 34.9212 41.4954 L 36.7953 42 L 42 36.7802 L 41.4962 34.87 L 36.8 31.3847 L 29.7965 24.4025 L 24.8387 29.3444 C 24.8317 29.6223 24.8007 29.8924 24.751 30.1579 L 24.751 30.1579 Z" fill="#ffffff"/>
			<path d="M 21.8994 16.5302 L 18.0099 12.6502 C 18.5099 11.6742 18.8096 10.6912 18.8088 9.7902 C 18.8088 4.8104 14.0334 -0.007 9.0406 0.0518 C 9.022 0.0518 8.4576 0.6231 8.151 0.9288 C 12.1515 4.918 11.8216 4.2701 11.8216 6.7175 C 11.8216 8.702 8.6315 11.8375 6.6852 11.8375 C 4.1652 11.8375 4.9679 12.2539 0.8812 8.1772 C 0.5629 8.4938 0.0008 9.0472 0 9.0658 C 0.0605 14.0449 4.7754 18.8049 9.7689 18.8049 C 10.6725 18.8049 11.6399 18.5163 12.5941 18.0387 L 16.1295 21.5635 C 16.3951 21.5147 16.6652 21.4807 16.9409 21.4737 L 21.8994 16.5302 L 21.8994 16.5302 Z" fill="#ffffff"/>
			<path opacity="0.702" d="M 37.8201 25.0163 L 40.4838 27.6006 C 40.4838 27.6006 44.3198 17.0016 39.7649 12.4597 C 38.1198 10.8189 35.6859 8.394 33.7745 6.4876 C 33.3607 6.0751 32.2009 6.4474 31.9012 6.0519 C 31.0635 4.9427 30.7553 3.9946 30.6893 3.7647 C 30.5061 2.8901 29.5745 2.0356 28.8214 1.2833 L 28.5411 1.0039 C 27.9138 0.3785 27.5885 0 27.2065 0 C 26.8883 0 26.5295 0.2647 25.9209 0.8715 L 22.2751 4.5062 C 20.9376 5.839 21.2559 5.9706 22.4071 7.1176 L 22.6882 7.3978 C 23.5267 8.2353 24.494 9.2933 25.4745 9.2933 C 25.4862 9.2933 25.4978 9.2933 25.5103 9.2933 C 26.2641 9.4334 27.8207 9.8738 28.5365 11.185 C 29.3229 12.9226 28.2104 14.1169 27.7648 14.784 L 17.9928 24.5263 C 17.6792 24.4272 17.3687 24.3731 17.0706 24.3731 C 16.541 24.3731 16.0519 24.5434 15.6537 24.9412 C 15.58 25.0147 15.4728 25.12 15.3423 25.2508 C 15.3423 25.2508 7.2938 33.274 5.2054 35.3553 C 5.0742 35.4876 4.9672 35.5921 4.8934 35.6672 C 2.9075 37.6486 6.5338 41.9257 9.1804 41.9257 C 9.7107 41.9257 10.2021 41.7531 10.6011 41.3561 C 10.6765 41.2818 10.7828 41.1773 10.9132 41.0464 C 13.0071 38.9582 21.0493 30.9396 21.0493 30.9396 C 21.1797 30.8096 21.2869 30.7043 21.3607 30.6308 C 21.9825 30.0108 22.0516 29.1656 21.776 28.2972 L 32.728 17.3769 C 33.4104 16.8073 34.0905 16.2817 34.4779 16.2817 C 34.5361 16.2817 34.5874 16.2934 34.6309 16.3189 C 38.5957 18.5867 37.8201 25.0163 37.8201 25.0163 L 37.8201 25.0163 Z" fill="#ffffff"/>
		</g>
	</g>
</svg>