<?xml version="1.0" standalone="no"?>
<!-- Generator: Adobe Fireworks 10, Export SVG Extension by Aaron Beall (http://fireworks.abeall.com) . Version: 0.6.1  -->
<!DOCTYPE svg PUBLIC "-//W3C//DTD SVG 1.1//EN" "http://www.w3.org/Graphics/SVG/1.1/DTD/svg11.dtd">
<svg id="Untitled-Page%201" viewBox="0 0 32 32" style="background-color:#ffffff00" version="1.1"
	xmlns="http://www.w3.org/2000/svg" xmlns:xlink="http://www.w3.org/1999/xlink" xml:space="preserve"
	x="0px" y="0px" width="32px" height="32px"
>
	<g id="Layer%201">
		<path d="M 14 8 C 14 8.2041 14.0327 8.3996 14.09 8.585 L 9.955 11.245 C 9.671 11.0903 9.3463 11 9 11 C 7.8954 11 7 11.8954 7 13 L 7.01 13.215 L 3.75 15.03 C 3.4084 14.4165 2.752 14 2 14 C 0.8954 14 0 14.8954 0 16 C 0 17.1046 0.8954 18 2 18 C 3.0107 18 3.8452 17.2486 3.98 16.275 L 7.305 14.06 C 7.6585 14.6247 8.2846 15 9 15 C 10.1046 15 11 14.1046 11 13 C 11 12.7931 10.9683 12.5927 10.91 12.405 L 14.38 9.17 C 14.7433 9.6727 15.3324 10 16 10 C 16.552 10 17.0535 9.7763 17.415 9.415 L 20.035 11.365 C 20.206 12.296 21.0196 13 22 13 C 23.1046 13 24 12.1046 24 11 C 24 10.7454 23.9521 10.4993 23.865 10.275 L 29.0938 5.8438 L 29.06 5.765 C 29.3408 5.9152 29.6593 6 30 6 C 31.1046 6 32 5.1046 32 4 C 32 2.8954 31.1046 2 30 2 C 28.8954 2 28 2.8954 28 4 C 28 4.3882 28.113 4.7531 28.305 5.06 L 22.865 9.195 C 22.6026 9.0686 22.3107 9 22 9 C 21.337 9 20.7489 9.3233 20.385 9.82 L 17.98 8.275 C 17.9923 8.1853 18 8.093 18 8 C 18 6.8954 17.1046 6 16 6 C 14.8954 6 14 6.8954 14 8 Z" fill="#ffffff"/>
		<path d="M 14 22 C 14 22.3405 14.0854 22.659 14.235 22.94 L 10.48 25.655 C 10.1143 25.2532 9.586 25 9 25 C 8.4319 25 7.9191 25.2347 7.555 25.615 L 3.99 25.22 L 4 25 C 4 23.8954 3.1046 23 2 23 C 0.8954 23 0 23.8954 0 25 C 0 26.1046 0.8954 27 2 27 C 2.5026 27 2.9636 26.8161 3.315 26.51 L 7 27 C 7 28.1046 7.8954 29 9 29 C 10.1046 29 11 28.1046 11 27 C 11 26.8821 10.9896 26.7673 10.97 26.655 L 15.035 23.755 C 15.3207 23.9122 15.6509 24 16 24 C 16.3441 24 16.6545 23.9024 16.9375 23.75 L 20.47 26.715 C 20.1779 27.0629 20 27.5107 20 28 C 20 29.1046 20.8954 30 22 30 C 23.1046 30 24 29.1046 24 28 C 24 27.7455 23.9518 27.5037 23.865 27.28 L 29 22.73 C 29.2942 22.9002 29.6357 23 30 23 C 31.1046 23 32 22.1046 32 21 C 32 19.8954 31.1046 19 30 19 C 28.8954 19 28 19.8954 28 21 C 28 21.53 28.2085 22.0128 28.545 22.37 L 23.36 26.535 C 23.0031 26.2036 22.5254 26 22 26 C 21.7112 26 21.4379 26.0598 21.19 26.17 L 17.56 23.255 C 17.8358 22.9122 18 22.4742 18 22 C 18 20.8954 17.1046 20 16 20 C 14.8954 20 14 20.8954 14 22 Z" fill="#ffffff"/>
	</g>
</svg>