<?xml version="1.0" standalone="no"?>
<!-- Generator: Adobe Fireworks 10, Export SVG Extension by Aaron Beall (http://fireworks.abeall.com) . Version: 0.6.1  -->
<!DOCTYPE svg PUBLIC "-//W3C//DTD SVG 1.1//EN" "http://www.w3.org/Graphics/SVG/1.1/DTD/svg11.dtd">
<svg id="Untitled-Page%201" viewBox="0 0 24 24" style="background-color:#ffffff00" version="1.1"
	xmlns="http://www.w3.org/2000/svg" xmlns:xlink="http://www.w3.org/1999/xlink" xml:space="preserve"
	x="0px" y="0px" width="24px" height="24px"
>
	<g id="Layer%201">
		<path id="Ellipse" d="M 0 12 C 0 5.3725 5.3725 0 12 0 C 18.6275 0 24 5.3725 24 12 C 24 18.6275 18.6275 24 12 24 C 5.3725 24 0 18.6275 0 12 Z" fill="#56a6c1"/>
		<g>
			<path d="M 15.5625 6.3817 C 14.7656 5.9195 13.5469 5.673 11.8906 5.673 C 10.8281 5.673 9.5 5.8733 7.8906 6.243 L 8.0156 7.3831 L 8.625 7.2907 C 9.9844 7.075 11.0156 6.9517 11.7344 6.9517 C 12.8281 6.9517 13.6406 7.1058 14.1563 7.3831 C 14.6563 7.6758 14.9219 8.1072 14.9219 8.6927 C 14.9219 9.2781 14.7813 9.7249 14.5156 10.0484 C 14.2344 10.372 13.6875 10.8034 12.875 11.358 C 12.0625 11.9126 11.4688 12.3594 11.0938 12.7292 C 10.7188 13.0989 10.5469 13.4995 10.5469 13.9309 C 10.5469 14.3622 10.6406 14.732 10.8594 15.0709 L 12.375 15.0709 L 12.375 14.4085 C 12.375 14.0079 12.5313 13.6535 12.8594 13.3146 C 13.1719 12.9911 13.7656 12.5443 14.625 11.9896 C 15.4688 11.435 16.0469 10.942 16.3281 10.526 C 16.6094 10.1101 16.75 9.4938 16.75 8.6773 C 16.75 7.6296 16.3438 6.8593 15.5625 6.3817 L 15.5625 6.3817 ZM 12.5625 18.8147 L 12.5625 16.7194 L 10.5938 16.7194 L 10.5938 18.8147 L 12.5625 18.8147 L 12.5625 18.8147 Z" fill="#ffffff"/>
		</g>
	</g>
</svg>