<?xml version="1.0" standalone="no"?>
<!-- Generator: Adobe Fireworks 10, Export SVG Extension by Aaron Beall (http://fireworks.abeall.com) . Version: 0.6.1  -->
<!DOCTYPE svg PUBLIC "-//W3C//DTD SVG 1.1//EN" "http://www.w3.org/Graphics/SVG/1.1/DTD/svg11.dtd">
<svg id="Untitled-Page%202" viewBox="0 0 216 146" style="background-color:#ffffff00" version="1.1"
	xmlns="http://www.w3.org/2000/svg" xmlns:xlink="http://www.w3.org/1999/xlink" xml:space="preserve"
	x="0px" y="0px" width="216px" height="146px"
>
	<g id="Layer%201">
		<path id="indicados" d="M 167.475 69.907 C 165.412 71.971 162.965 73.003 160.141 73.003 L 133.174 73.003 C 133.988 73.926 134.667 75.217 135.21 76.873 C 135.754 78.529 136.025 80.037 136.025 81.394 C 136.025 85.142 134.586 88.373 131.707 91.088 C 132.686 92.826 133.174 94.701 133.174 96.71 C 133.174 98.72 132.698 100.716 131.748 102.698 C 130.797 104.68 129.507 106.106 127.877 106.975 C 128.148 108.602 128.285 110.124 128.285 111.537 C 128.285 120.606 123.152 125.141 112.887 125.141 C 108.487 125.141 103.612 124.272 98.262 122.535 C 92.912 120.798 87.657 119.059 82.497 117.321 C 77.337 115.583 72.802 114.714 68.891 114.714 L 66.284 114.714 L 66.284 62.572 L 68.891 62.572 C 72.747 62.572 76.549 61.024 80.297 57.927 C 81.927 56.568 84.67 53.689 88.526 49.29 C 92.437 44.891 95.479 40.954 97.651 37.477 C 98.357 36.336 99.362 34.571 100.666 32.181 C 104.251 24.631 106.695 20.857 107.999 20.857 C 111.855 20.857 114.992 21.685 117.409 23.341 C 119.826 24.998 121.034 27.645 121.034 31.284 C 121.034 33.62 120.627 35.915 119.812 38.169 C 118.997 40.423 118.101 42.27 117.124 43.709 C 116.147 45.148 115.25 46.642 114.436 48.19 C 113.621 49.738 113.214 51.055 113.214 52.141 L 160.143 52.141 C 162.858 52.141 165.276 53.187 167.395 55.278 C 169.512 57.37 170.571 59.799 170.571 62.57 C 170.57 65.396 169.539 67.84 167.475 69.907 L 167.475 69.907 ZM 54.309 113.166 C 53.277 114.198 52.055 114.714 50.643 114.714 C 49.23 114.714 48.008 114.198 46.976 113.166 C 45.944 112.134 45.428 110.912 45.428 109.5 C 45.428 108.088 45.944 106.865 46.976 105.834 C 48.009 104.802 49.23 104.285 50.643 104.285 C 52.055 104.285 53.277 104.802 54.309 105.834 C 55.341 106.865 55.857 108.088 55.857 109.5 C 55.857 110.912 55.341 112.134 54.309 113.166 L 54.309 113.166 ZM 174.809 47.903 C 170.68 43.775 165.791 41.711 160.143 41.711 L 129.672 41.711 C 130.867 38.452 131.465 34.976 131.465 31.282 C 131.465 24.656 129.251 19.524 124.824 15.884 C 120.396 12.245 114.789 10.426 108 10.426 C 105.936 10.426 104.048 10.901 102.337 11.852 C 100.626 12.802 99.132 14.147 97.856 15.884 C 96.58 17.622 95.48 19.333 94.557 21.017 C 93.633 22.701 92.628 24.656 91.542 26.883 C 90.456 29.111 89.56 30.794 88.854 31.935 C 86.953 34.923 84.237 38.425 80.707 42.445 C 80.598 42.608 80.218 43.07 79.566 43.83 C 78.914 44.591 78.398 45.175 78.018 45.582 C 77.638 45.989 77.082 46.573 76.348 47.334 C 75.614 48.095 74.962 48.705 74.392 49.167 C 73.822 49.629 73.211 50.117 72.559 50.634 C 71.907 51.15 71.269 51.53 70.644 51.775 C 70.02 52.019 69.436 52.141 68.893 52.141 L 45.429 52.141 C 42.55 52.141 40.092 53.161 38.055 55.197 C 36.019 57.233 35 59.691 35 62.57 L 35 114.713 C 35 117.592 36.018 120.05 38.055 122.087 C 40.093 124.123 42.55 125.143 45.429 125.143 L 68.893 125.143 C 72.097 125.143 78.153 126.746 87.061 129.95 C 97.326 133.698 106.071 135.571 113.295 135.571 C 120.953 135.571 127.118 133.384 131.789 129.012 C 136.46 124.64 138.769 118.679 138.714 111.128 C 141.975 106.945 143.604 102.111 143.604 96.626 C 143.604 95.432 143.522 94.264 143.36 93.123 C 145.153 90.027 146.157 86.795 146.375 83.428 L 160.144 83.428 C 165.847 83.428 170.75 81.364 174.851 77.237 C 178.951 73.109 181.001 68.194 181.001 62.491 C 181 56.896 178.936 52.034 174.809 47.903 L 174.809 47.903 Z" fill="#ffffff"/>
	</g>
</svg>