<?xml version="1.0" standalone="no"?>
<!-- Generator: Adobe Fireworks 10, Export SVG Extension by Aaron Beall (http://fireworks.abeall.com) . Version: 0.6.1  -->
<!DOCTYPE svg PUBLIC "-//W3C//DTD SVG 1.1//EN" "http://www.w3.org/Graphics/SVG/1.1/DTD/svg11.dtd">
<svg id="Untitled-Page%201" viewBox="0 0 36 36" style="background-color:#ffffff00" version="1.1"
	xmlns="http://www.w3.org/2000/svg" xmlns:xlink="http://www.w3.org/1999/xlink" xml:space="preserve"
	x="0px" y="0px" width="36px" height="36px"
>
	<g id="Layer%201">
		<path d="M 16 12 C 16 13.1046 16.8954 14 18 14 C 19.1046 14 20 13.1046 20 12 C 20 10.8954 19.1046 10 18 10 C 16.8954 10 16 10.8954 16 12 ZM 18.905 24 L 19 24 L 19 23.94 L 18.905 24 ZM 18 24.5 C 18.3161 24.3419 18.6189 24.1733 18.905 24 L 19 23.94 C 20.1642 23.2205 21 22.4352 21 22 C 21 21.6555 20.0882 21.6121 19 21.83 L 19 17.245 C 19.6137 16.755 20 16.2962 20 16 C 20 15.4477 18.6569 15.6716 17 16.5 C 15.3431 17.3284 14 18.4477 14 19 C 14 19.5523 15.3431 19.3284 17 18.5 L 17 22.5 C 15.3431 23.3284 15 24.4477 15 25 C 15 25.5523 16.3431 25.3284 18 24.5 Z" fill="#ffffff"/>
	</g>
</svg>