<?xml version="1.0" standalone="no"?>
<!-- Generator: Adobe Fireworks 10, Export SVG Extension by Aaron Beall (http://fireworks.abeall.com) . Version: 0.6.1  -->
<!DOCTYPE svg PUBLIC "-//W3C//DTD SVG 1.1//EN" "http://www.w3.org/Graphics/SVG/1.1/DTD/svg11.dtd">
<svg id="Untitled-Page%201" viewBox="0 0 20 18" style="background-color:#ffffff00" version="1.1"
	xmlns="http://www.w3.org/2000/svg" xmlns:xlink="http://www.w3.org/1999/xlink" xml:space="preserve"
	x="0px" y="0px" width="20px" height="18px"
>
	<g id="Layer%201">
		<path d="M 0 12 L 0 14 L 4 14 L 4 12 L 0 12 ZM 7 12 L 7 14 L 20 14 L 20 12 L 7 12 ZM 0 8 L 0 10 L 4 10 L 4 8 L 0 8 ZM 7 8 L 7 10 L 20 10 L 20 8 L 7 8 ZM 0 4 L 0 6 L 4 6 L 4 4 L 0 4 ZM 7 4 L 7 6 L 20 6 L 20 4 L 7 4 ZM 0 16 L 0 18 L 4 18 L 4 16 L 0 16 ZM 7 16 L 7 18 L 20 18 L 20 16 L 7 16 ZM 0 0 L 0 2 L 4 2 L 4 0 L 0 0 ZM 7 0 L 7 2 L 20 2 L 20 0 L 7 0 Z" fill="#ffffff"/>
	</g>
</svg>