<?xml version="1.0" standalone="no"?>
<!-- Generator: Adobe Fireworks 10, Export SVG Extension by Aaron Beall (http://fireworks.abeall.com) . Version: 0.6.1  -->
<!DOCTYPE svg PUBLIC "-//W3C//DTD SVG 1.1//EN" "http://www.w3.org/Graphics/SVG/1.1/DTD/svg11.dtd">
<svg id="Untitled-Page%201" viewBox="0 0 16 16" style="background-color:#ffffff00" version="1.1"
	xmlns="http://www.w3.org/2000/svg" xmlns:xlink="http://www.w3.org/1999/xlink" xml:space="preserve"
	x="0px" y="0px" width="16px" height="16px"
>
	<g id="Layer%201">
		<g>
			<path d="M 7 9 L 9 9 L 9 13 L 7 13 L 7 9 ZM 3 7 L 3 13 C 3 14.1046 3.8954 15 5 15 L 11 15 C 12.1046 15 13 14.1046 13 13 L 13 7 L 3 7 Z" fill="#333433"/>
			<rect x="4" y="2" width="1" height="5" fill="#333433"/>
			<rect x="5" y="1" width="6" height="1" fill="#333433"/>
			<rect x="11" y="2" width="1" height="5" fill="#333433"/>
			<path opacity="0.502" d="M 11 1 C 11 1 11.4895 0.9582 11.7656 1.2344 C 12.0417 1.5105 12 2 12 2 L 11 2 L 11 1 Z" fill="#333433"/>
			<path opacity="0.502" d="M 5.0022 1 C 5.0022 1 4.5127 0.9582 4.2366 1.2344 C 3.9604 1.5105 4.0022 2 4.0022 2 L 5.0022 2 L 5.0022 1 Z" fill="#333433"/>
		</g>
	</g>
</svg>