<?xml version="1.0" standalone="no"?>
<!-- Generator: Adobe Fireworks 10, Export SVG Extension by Aaron Beall (http://fireworks.abeall.com) . Version: 0.6.1  -->
<!DOCTYPE svg PUBLIC "-//W3C//DTD SVG 1.1//EN" "http://www.w3.org/Graphics/SVG/1.1/DTD/svg11.dtd">
<svg id="Untitled-Page%201" viewBox="0 0 16 16" style="background-color:#ffffff00" version="1.1"
	xmlns="http://www.w3.org/2000/svg" xmlns:xlink="http://www.w3.org/1999/xlink" xml:space="preserve"
	x="0px" y="0px" width="16px" height="16px"
>
	<g id="Layer%201">
		<path d="M 0 7 C 0 11.4183 3.5817 15 8 15 C 12.4183 15 16 11.4183 16 7 C 16 5.5428 15.6106 4.1767 14.9299 3 L 12.745 3 C 13.5359 4.1338 15 5.5127 15 7 C 15 10.866 11.8661 14 8 14 C 4.1339 14 1 10.866 1 7 C 1 5.5127 2.4641 4.1338 3.255 3 L 1.0699 3 C 0.3893 4.1767 0 5.5428 0 7 ZM 7 1 L 7 8 L 9 8 L 9 1 L 7 1 Z" fill="#dc1717"/>
	</g>
</svg>