<?xml version="1.0" standalone="no"?>
<!-- Generator: Adobe Fireworks 10, Export SVG Extension by Aaron Beall (http://fireworks.abeall.com) . Version: 0.6.1  -->
<!DOCTYPE svg PUBLIC "-//W3C//DTD SVG 1.1//EN" "http://www.w3.org/Graphics/SVG/1.1/DTD/svg11.dtd">
<svg id="Untitled-Page%201" viewBox="0 0 20 20" style="background-color:#ffffff00" version="1.1"
	xmlns="http://www.w3.org/2000/svg" xmlns:xlink="http://www.w3.org/1999/xlink" xml:space="preserve"
	x="0px" y="0px" width="20px" height="20px"
>
	<g id="Layer%201">
		<path id="1407002947_plus-24" d="M 19.5652 11.1739 L 11.174 11.1739 L 11.174 19.5652 C 11.174 19.8052 10.9791 20 10.7391 20 L 9.2609 20 C 9.0209 20 8.826 19.8052 8.826 19.5652 L 8.826 11.1739 L 0.4348 11.1739 C 0.1948 11.1739 0 10.9791 0 10.7391 L 0 9.2609 C 0 9.0209 0.1948 8.8261 0.4348 8.8261 L 8.826 8.8261 L 8.826 0.4348 C 8.826 0.1948 9.0209 0 9.2609 0 L 10.7391 0 C 10.9791 0 11.174 0.1948 11.174 0.4348 L 11.174 8.8261 L 19.5652 8.8261 C 19.8052 8.8261 20 9.0209 20 9.2609 L 20 10.7391 C 20 10.9791 19.8052 11.1739 19.5652 11.1739 L 19.5652 11.1739 Z" fill="#ffffff"/>
	</g>
</svg>