<?xml version="1.0" standalone="no"?>
<!-- Generator: Adobe Fireworks 10, Export SVG Extension by Aaron Beall (http://fireworks.abeall.com) . Version: 0.6.1  -->
<!DOCTYPE svg PUBLIC "-//W3C//DTD SVG 1.1//EN" "http://www.w3.org/Graphics/SVG/1.1/DTD/svg11.dtd">
<svg id="Untitled-Page%201" viewBox="0 0 42 42" style="background-color:#ffffff00" version="1.1"
	xmlns="http://www.w3.org/2000/svg" xmlns:xlink="http://www.w3.org/1999/xlink" xml:space="preserve"
	x="0px" y="0px" width="42px" height="42px"
>
	<g id="Layer%201">
		<g>
			<path opacity="0.702" d="M 38.6842 31.7327 C 40.7793 28.4965 42 24.61 42 20.4324 C 42 9.1478 33.093 0 22.1053 0 C 11.1176 0 2.2105 9.1478 2.2105 20.4324 L 5.5263 20.4324 C 5.5263 11.0286 12.9489 3.4054 22.1053 3.4054 C 31.2617 3.4054 38.6842 11.0286 38.6842 20.4324 C 38.6842 22.4225 38.3501 24.3329 37.7392 26.1081 L 38.6842 31.7327 ZM 36.4737 20.4324 C 36.4737 19.8055 35.9789 19.2973 35.3684 19.2973 C 34.758 19.2973 34.2632 19.8055 34.2632 20.4324 C 34.2632 21.0594 34.758 21.5676 35.3684 21.5676 C 35.9789 21.5676 36.4737 21.0594 36.4737 20.4324 ZM 21 6.8108 C 21 7.4377 21.4948 7.9459 22.1053 7.9459 C 22.7157 7.9459 23.2105 7.4377 23.2105 6.8108 C 23.2105 6.1839 22.7157 5.6757 22.1053 5.6757 C 21.4948 5.6757 21 6.1839 21 6.8108 ZM 19.8947 20.4324 C 19.8947 21.0594 20.8844 21.5676 22.1053 21.5676 C 23.3261 21.5676 33.1579 21.0594 33.1579 20.4324 C 33.1579 19.9103 26.3398 19.4695 23.3542 19.337 C 24.218 17.511 27.0988 9.9427 26.5263 9.6486 C 25.9159 9.3352 21.6104 17.4118 21 18.4865 C 20.7835 18.8676 20.6429 19.2541 20.58 19.6094 C 20.1573 19.8162 19.8947 20.109 19.8947 20.4324 Z" fill="#ffffff"/>
			<path d="M 0 38.0707 C 0 40.2408 4.0098 42 8.9563 42 C 13.9027 42 17.9125 40.2408 17.9125 38.0707 C 17.9125 37.3709 17.4977 36.7118 16.7668 36.1427 C 16.7855 36.2091 16.793 36.2783 16.793 36.3462 L 16.793 37.4813 C 16.793 38.7834 13.2844 39.8389 8.9563 39.8389 C 4.6281 39.8389 1.1195 38.7834 1.1195 37.4813 L 1.1195 36.3462 C 1.1195 36.2783 1.1308 36.2091 1.1495 36.1427 C 0.4187 36.7118 0 37.3709 0 38.0707 Z" fill="#ffffff"/>
			<path d="M 0 33.5302 C 0 35.7003 4.0098 37.4595 8.9563 37.4595 C 13.9027 37.4595 17.9125 35.7003 17.9125 33.5302 C 17.9125 32.8304 17.4977 32.1713 16.7668 31.6022 C 16.7855 31.6685 16.793 31.7378 16.793 31.8056 L 16.793 32.9407 C 16.793 34.2428 13.2844 35.2984 8.9563 35.2984 C 4.6281 35.2984 1.1195 34.2428 1.1195 32.9407 L 1.1195 31.8056 C 1.1195 31.7378 1.1308 31.6685 1.1495 31.6022 C 0.4187 32.1713 0 32.8304 0 33.5302 Z" fill="#ffffff"/>
			<path d="M 0 28.9896 C 0 31.1597 4.0098 32.9189 8.9563 32.9189 C 13.9027 32.9189 17.9125 31.1597 17.9125 28.9896 C 17.9125 28.2898 17.4977 27.6307 16.7668 27.0616 C 16.7855 27.128 16.793 27.1972 16.793 27.2651 L 16.793 28.4002 C 16.793 29.7023 13.2844 30.7578 8.9563 30.7578 C 4.6281 30.7578 1.1195 29.7023 1.1195 28.4002 L 1.1195 27.2651 C 1.1195 27.1972 1.1308 27.128 1.1495 27.0616 C 0.4187 27.6307 0 28.2898 0 28.9896 Z" fill="#ffffff"/>
			<path d="M 18.7895 38.0707 C 18.7895 40.2408 22.7993 42 27.7457 42 C 32.6922 42 36.702 40.2408 36.702 38.0707 C 36.702 37.3709 36.2871 36.7118 35.5563 36.1427 C 35.575 36.2091 35.5824 36.2783 35.5824 36.3462 L 35.5824 37.4813 C 35.5824 38.7834 32.0739 39.8389 27.7457 39.8389 C 23.4175 39.8389 19.909 38.7834 19.909 37.4813 L 19.909 36.3462 C 19.909 36.2783 19.9203 36.2091 19.9389 36.1427 C 19.2081 36.7118 18.7895 37.3709 18.7895 38.0707 Z" fill="#ffffff"/>
			<path d="M 1.1195 23.5104 C 1.1195 22.2083 4.6281 21.1528 8.9563 21.1528 C 13.2844 21.1528 16.793 22.2083 16.793 23.5104 C 16.793 24.8125 13.2844 25.868 8.9563 25.868 C 4.6281 25.868 1.1195 24.8125 1.1195 23.5104 ZM 0 24.0998 C 0 26.2699 4.0098 28.0291 8.9563 28.0291 C 13.9027 28.0291 17.9125 26.2699 17.9125 24.0998 C 17.9125 21.9296 13.9027 20.1705 8.9563 20.1705 C 4.0098 20.1705 0 21.9296 0 24.0998 Z" fill="#ffffff"/>
			<path d="M 19.909 32.5915 C 19.909 31.2894 23.4175 30.2339 27.7457 30.2339 C 32.0739 30.2339 35.5824 31.2894 35.5824 32.5915 C 35.5824 33.8936 32.0739 34.9491 27.7457 34.9491 C 23.4175 34.9491 19.909 33.8936 19.909 32.5915 ZM 18.7895 33.1809 C 18.7895 35.351 22.7993 37.1102 27.7457 37.1102 C 32.6922 37.1102 36.702 35.351 36.702 33.1809 C 36.702 31.0107 32.6922 29.2515 27.7457 29.2515 C 22.7993 29.2515 18.7895 31.0107 18.7895 33.1809 Z" fill="#ffffff"/>
		</g>
	</g>
</svg>