<?xml version="1.0" standalone="no"?>
<!-- Generator: Adobe Fireworks 10, Export SVG Extension by Aaron Beall (http://fireworks.abeall.com) . Version: 0.6.1  -->
<!DOCTYPE svg PUBLIC "-//W3C//DTD SVG 1.1//EN" "http://www.w3.org/Graphics/SVG/1.1/DTD/svg11.dtd">
<svg id="Untitled-Page%201" viewBox="0 0 42 42" style="background-color:#ffffff00" version="1.1"
	xmlns="http://www.w3.org/2000/svg" xmlns:xlink="http://www.w3.org/1999/xlink" xml:space="preserve"
	x="0px" y="0px" width="42px" height="42px"
>
	<g id="Layer%201">
		<g id="1407000167_grey_new_seo2-30">
			<path d="M 6.8751 20.0187 L 1.7805 20.0187 C 1.3497 20.0187 1 20.3704 1 20.8037 C 1 21.2371 1.3497 21.5888 1.7805 21.5888 L 6.8751 21.5888 C 7.1456 21.9813 7.6431 22.2757 8.2195 22.2757 C 9.0815 22.2757 9.7805 21.5236 9.7805 20.6566 C 9.7805 19.7895 9.0815 19.1602 8.2195 19.1602 C 7.6431 19.1599 7.1456 19.2336 6.8751 20.0187 L 6.8751 20.0187 Z" fill="#ffffff"/>
			<path d="M 6.8751 9.028 L 1.7805 9.028 C 1.3497 9.028 1 9.3797 1 9.8131 C 1 10.2464 1.3497 10.5981 1.7805 10.5981 L 6.8751 10.5981 C 7.1456 10.9907 7.6431 11.285 8.2195 11.285 C 9.0815 11.285 9.7805 10.533 9.7805 9.6659 C 9.7805 8.7988 9.0815 8.1696 8.2195 8.1696 C 7.6431 8.1692 7.1456 8.243 6.8751 9.028 L 6.8751 9.028 Z" fill="#ffffff"/>
			<path opacity="0.702" d="M 2.7561 23.1589 L 4.8781 23.1589 L 4.8781 29.4392 L 2.7561 29.4392 L 2.7561 23.1589 Z" fill="#ffffff"/>
			<path opacity="0.702" d="M 2.7561 12.1682 L 4.8781 12.1682 L 4.8781 18.4486 L 2.7561 18.4486 L 2.7561 12.1682 Z" fill="#ffffff"/>
			<path d="M 6.8751 31.0093 L 1.7805 31.0093 C 1.3497 31.0093 1 31.3611 1 31.7944 C 1 32.2278 1.3497 32.5794 1.7805 32.5794 L 6.8751 32.5794 C 7.1456 32.972 7.6431 33.2664 8.2195 33.2664 C 9.0815 33.2664 9.7805 32.5143 9.7805 31.6472 C 9.7805 30.7801 9.0815 30.1509 8.2195 30.1509 C 7.6431 30.1505 7.1456 30.2243 6.8751 31.0093 L 6.8751 31.0093 Z" fill="#ffffff"/>
			<path d="M 40.577 11.2898 L 36.9836 7.6687 C 36.7885 7.507 36.4552 7.4579 36.0806 7.4579 L 32.6203 7.4579 C 32.3959 7.4579 32.1785 7.5431 32.006 7.7166 L 20.6117 19.1493 C 20.1953 19.5677 20.1953 20.2326 20.6117 20.651 C 20.8197 20.8603 21.0925 20.958 21.3652 20.958 C 21.6381 20.958 21.9108 20.823 22.1188 20.6138 L 33.2166 9.4206 L 35.7977 9.4206 L 35.9194 9.5701 C 35.8944 9.5878 35.8699 9.62 35.8476 9.6427 L 23.4066 22.1623 C 23.1987 22.3715 23.1987 22.7141 23.4066 22.9234 C 23.5109 23.0282 23.647 23.0819 23.7832 23.0819 C 23.9194 23.0819 24.056 23.0305 24.1598 22.9257 L 36.6004 10.4132 C 36.6226 10.3909 36.6414 10.3661 36.6589 10.341 L 38.04 11.7306 C 38.015 11.7482 37.9904 11.7671 37.9682 11.7898 L 25.5284 24.3031 C 25.3204 24.5123 25.3204 24.8514 25.5284 25.0611 C 25.6326 25.1659 25.7687 25.218 25.905 25.218 C 26.0411 25.218 26.1777 25.1659 26.2816 25.0611 L 38.7217 12.5478 C 38.744 12.5254 38.8357 12.5007 38.8533 12.4756 L 39.0488 12.5977 L 39.0488 15.1938 L 27.8781 26.3564 C 27.4617 26.7748 27.4254 27.4535 27.8417 27.8723 C 28.0497 28.0815 28.3042 28.1863 28.577 28.1863 C 28.8497 28.1863 29.1136 28.0815 29.3212 27.8723 L 40.7108 16.4114 C 40.7132 16.4091 40.7245 16.4189 40.7108 16.4114 C 40.9091 16.2167 41 15.9384 41 15.6377 L 41 12.1541 C 41 11.7981 40.8021 11.5123 40.577 11.2898 L 40.577 11.2898 Z" fill="#ffffff"/>
			<path d="M 27.0144 28.505 C 26.8697 27.9312 26.2905 27.5838 25.7196 27.7298 L 20.9899 28.9368 C 20.9415 28.8454 20.8837 28.7578 20.8072 28.6809 L 19.2915 27.1563 L 20.6109 22.5948 C 20.7752 22.0265 20.4505 21.4314 19.8854 21.2661 C 19.3208 21.1013 18.7292 21.4275 18.5645 21.9958 L 16.0334 30.7471 C 16.0225 30.7856 16.0146 30.8225 16.0095 30.8578 C 15.9834 31.0038 15.985 31.157 16.0236 31.31 C 16.1458 31.7956 16.5797 32.1186 17.0558 32.1186 C 17.1425 32.1186 17.2307 32.108 17.3184 32.0853 L 26.2437 29.8074 C 26.8138 29.6622 27.1592 29.0785 27.0144 28.505 L 27.0144 28.505 Z" fill="#ffffff"/>
			<path opacity="0.702" d="M 32.2195 0 L 6.0732 0 C 4.3491 0 2.7561 1.2098 2.7561 2.9439 L 2.7561 7.4579 L 4.8781 7.4579 L 4.8781 2.1402 L 11.3415 2.1402 L 11.3415 39.8598 L 4.8781 39.8598 L 4.8781 34.1495 L 2.7561 34.1495 L 2.7561 38.6635 C 2.7561 40.3977 4.3491 42 6.0732 42 L 32.2195 42 C 33.9436 42 35.1464 40.3977 35.1464 38.6635 L 35.1464 24.2317 L 33.0244 27.3734 L 33.0244 39.8598 L 12.9024 39.8598 L 12.9024 2.1402 L 33.0244 2.1402 L 33.0244 5.8878 L 35.1464 5.8878 L 35.1464 2.9439 C 35.1464 1.2098 33.9436 0 32.2195 0 L 32.2195 0 Z" fill="#ffffff"/>
		</g>
	</g>
</svg>