<?xml version="1.0" standalone="no"?>
<!-- Generator: Adobe Fireworks 10, Export SVG Extension by Aaron Beall (http://fireworks.abeall.com) . Version: 0.6.1  -->
<!DOCTYPE svg PUBLIC "-//W3C//DTD SVG 1.1//EN" "http://www.w3.org/Graphics/SVG/1.1/DTD/svg11.dtd">
<svg id="Untitled-Page%201" viewBox="0 0 32 32" style="background-color:#ffffff00" version="1.1"
	xmlns="http://www.w3.org/2000/svg" xmlns:xlink="http://www.w3.org/1999/xlink" xml:space="preserve"
	x="0px" y="0px" width="32px" height="32px"
>
	<g id="Layer%201">
		<path d="M 10.875 24.875 L 17.25 28.5556 L 17.25 26.93 C 22.7366 26.3094 27 21.6525 27 16 C 27 12.9624 25.77 10.2112 23.78 8.22 L 20.95 11.05 C 22.2165 12.317 23 14.067 23 16 C 23 19.4394 20.5196 22.3006 17.25 22.89 L 17.25 21.1944 L 10.875 24.875 ZM 21.25 6.875 L 14.875 3.1944 L 14.875 5.055 C 9.3283 5.6184 5 10.3046 5 16 C 5 19.0376 6.2294 21.7894 8.22 23.78 L 11.05 20.95 C 9.7832 19.6833 9 17.933 9 16 C 9 12.5169 11.5439 9.6281 14.875 9.09 L 14.875 10.5556 L 21.25 6.875 Z" fill="#333333"/>
	</g>
</svg>