<?xml version="1.0" standalone="no"?>
<!-- Generator: Adobe Fireworks 10, Export SVG Extension by Aaron Beall (http://fireworks.abeall.com) . Version: 0.6.1  -->
<!DOCTYPE svg PUBLIC "-//W3C//DTD SVG 1.1//EN" "http://www.w3.org/Graphics/SVG/1.1/DTD/svg11.dtd">
<svg id="Untitled-Page%201" viewBox="0 0 32 32" style="background-color:#ffffff00" version="1.1"
	xmlns="http://www.w3.org/2000/svg" xmlns:xlink="http://www.w3.org/1999/xlink" xml:space="preserve"
	x="0px" y="0px" width="32px" height="32px"
>
	<g id="Layer%201">
		<path d="M 14.5 4 L 17.5 4 L 17.5 6 L 14.5 6 L 14.5 4 ZM 16 0 L 0 5.2381 L 16 12 L 28.5 6.715 L 28.5 12 C 28.1886 12.7329 28 12.8053 28 14 C 28 16.2092 28.6716 19 29.5 19 C 30.3284 19 31 16.2092 31 14 C 31 12.8053 30.8114 12.7329 30.5 12 L 30.5 6 L 30.195 6 L 32 5.2381 L 16 0 ZM 18 19 C 18 17.8954 18.8954 17 20 17 C 21.1046 17 22 17.8954 22 19 C 22 20.1046 21.1046 21 20 21 C 18.8954 21 18 20.1046 18 19 ZM 10 19 C 10 17.8954 10.8954 17 12 17 C 13.1046 17 14 17.8954 14 19 C 14 20.1046 13.1046 21 12 21 C 10.8954 21 10 20.1046 10 19 ZM 16 31 C 16 31 22.3039 29.3011 24.5712 23.6895 C 24.8491 23.0017 25.0744 23.3794 25.2609 22.6056 C 25.5314 23.5224 25.9869 23 26.5 23 C 27.3284 23 28 21.433 28 19.5 C 28 17.567 27.3284 16 26.5 16 C 26.3212 16 26.149 16.071 25.99 16.205 C 26.1602 13.318 26 11.0156 26 11.0156 L 16 14 L 6 11.0156 C 6 11.0156 5.8398 13.318 6.01 16.205 C 5.851 16.071 5.6788 16 5.5 16 C 4.6716 16 4 17.567 4 19.5 C 4 21.433 4.6716 23 5.5 23 C 6.0131 23 6.4686 23.5224 6.7391 22.6056 C 6.9256 23.3794 7.1509 23.0017 7.4288 23.6895 C 9.6961 29.3011 16 31 16 31 Z" fill="#ffffff"/>
	</g>
</svg>