<?xml version="1.0" standalone="no"?>
<!-- Generator: Adobe Fireworks 10, Export SVG Extension by Aaron Beall (http://fireworks.abeall.com) . Version: 0.6.1  -->
<!DOCTYPE svg PUBLIC "-//W3C//DTD SVG 1.1//EN" "http://www.w3.org/Graphics/SVG/1.1/DTD/svg11.dtd">
<svg id="Untitled-Page%201" viewBox="0 0 32 32" style="background-color:#ffffff00" version="1.1"
	xmlns="http://www.w3.org/2000/svg" xmlns:xlink="http://www.w3.org/1999/xlink" xml:space="preserve"
	x="0px" y="0px" width="32px" height="32px"
>
	<g id="Layer%201">
		<path d="M 6 12 C 6 14.3798 7.0388 17.4686 8.545 19.02 C 0.8682 19.3313 0 23.4069 0 25 C 0 26.6569 7.9395 26 16.5 26 C 25.0605 26 32 26.6569 32 25 C 32 24.2102 31.696 21.0847 27.2775 20.9006 L 24.645 20.78 C 26.5987 20.2253 28 18.6225 28 16 C 28 12.6862 25.7615 8 23 8 C 20.2385 8 18 12.6862 18 16 C 18 18.326 19.1024 19.8481 20.715 20.55 C 16.5496 20.2631 14.1344 19.9276 11.905 19.5 C 13.7019 18.2041 15 14.6592 15 12 C 15 8.6862 12.9853 6 10.5 6 C 8.0147 6 6 8.6862 6 12 Z" fill="#ffffff"/>
	</g>
</svg>