<?xml version="1.0" standalone="no"?>
<!-- Generator: Adobe Fireworks 10, Export SVG Extension by Aaron Beall (http://fireworks.abeall.com) . Version: 0.6.1  -->
<!DOCTYPE svg PUBLIC "-//W3C//DTD SVG 1.1//EN" "http://www.w3.org/Graphics/SVG/1.1/DTD/svg11.dtd">
<svg id="Untitled-Page%201" viewBox="0 0 42 42" style="background-color:#ffffff00" version="1.1"
	xmlns="http://www.w3.org/2000/svg" xmlns:xlink="http://www.w3.org/1999/xlink" xml:space="preserve"
	x="0px" y="0px" width="42px" height="42px"
>
	<g id="Layer%201">
		<g>
			<path d="M -0.113 39.9 C -0.3203 40.5236 -0.4546 41.2193 -0.5 42 L 32.75 42 C 32.7047 41.2193 32.5709 40.5236 32.3644 39.9 C 30.3961 33.9573 21.8289 32.7945 20.4414 27.651 L 20.4414 27.651 C 20.3136 25.7059 20.3627 24.3484 20.3627 22.571 C 20.8146 22.244 21.5199 20.2296 21.9622 18.9 C 22.1449 18.3507 22.2827 17.7756 22.3392 17.2297 C 22.8416 17.1872 23.6334 16.6804 23.8652 14.6796 C 23.9904 13.6053 23.4934 13.0008 23.1907 12.8108 C 24.0079 10.2687 25.7053 2.4045 20.0511 1.5918 C 19.4692 0.5348 17.9791 0 16.0428 0 C 8.2955 0.1475 7.361 6.0506 9.0593 12.8108 C 8.7575 13.0008 8.2605 13.6053 8.3847 14.6796 C 8.6174 16.6804 9.4084 17.1872 9.9108 17.2297 C 9.967 17.7754 10.1086 18.3506 10.2968 18.9 C 10.7522 20.2294 11.4806 22.244 11.9338 22.571 C 11.9338 24.3484 11.9819 25.7059 11.8541 27.651 C 10.4667 32.7945 1.8628 33.9573 -0.113 39.9 Z" stroke="#ffffff" stroke-width="2" fill="none"/>
			<path opacity="0.702" d="M 30.2839 39 L 41.5 39 C 41.0924 29.054 32.2529 30.5039 30.9358 25.3469 C 30.827 23.5798 30.8688 21.859 30.8688 20.6488 C 30.9533 20.6004 31.048 20.512 31.1484 20.3909 C 31.7008 19.7248 32.4254 18.0692 32.5659 16.6357 C 32.9948 16.5957 33.676 16.1374 33.8766 14.3215 C 33.9828 13.3463 33.5557 12.7982 33.2953 12.6246 C 33.9962 10.3163 35.455 3.1815 30.6014 2.4433 C 30.1021 1.4847 28.8241 1 27.1611 1 C 25.0629 1.0419 23.5477 1.6046 22.5 2.5477 " stroke="#ffffff" stroke-width="2" fill="none"/>
		</g>
	</g>
</svg>