<?xml version="1.0" encoding="utf-8"?>
<!-- Generator: Adobe Illustrator 17.0.0, SVG Export Plug-In . SVG Version: 6.00 Build 0)  -->
<!DOCTYPE svg PUBLIC "-//W3C//DTD SVG 1.1//EN" "http://www.w3.org/Graphics/SVG/1.1/DTD/svg11.dtd">
<svg version="1.1" id="Capa_1" xmlns="http://www.w3.org/2000/svg" xmlns:xlink="http://www.w3.org/1999/xlink" x="0px" y="0px"
	 width="64px" height="64px" viewBox="0 0 64 64" enable-background="new 0 0 64 64" xml:space="preserve">
<path d="M11.565,52.159c1.387,1.307,3.953,0.834,5.732-1.054l9.364-9.94c2.963,2.262,6.653,3.62,10.668,3.62
	c9.73,0,17.618-7.888,17.618-17.619c0-9.729-7.888-17.618-17.618-17.618c-9.731,0-17.619,7.888-17.619,17.618
	c0,3.552,1.06,6.852,2.868,9.618c-0.988,0.219-2.009,0.785-2.853,1.681L9.053,49.793L11.565,52.159z M37.329,14.247
	c7.136,0,12.92,5.784,12.92,12.919c0,7.136-5.784,12.92-12.92,12.92c-7.135,0-12.92-5.784-12.92-12.92
	C24.409,20.031,30.194,14.247,37.329,14.247z"/>
</svg>
