<?xml version="1.0" standalone="no"?>
<!DOCTYPE svg PUBLIC "-//W3C//DTD SVG 20010904//EN"
 "http://www.w3.org/TR/2001/REC-SVG-20010904/DTD/svg10.dtd">
<svg version="1.0" xmlns="http://www.w3.org/2000/svg"
 width="300.000000pt" height="108.000000pt" viewBox="0 0 300.000000 108.000000"
 preserveAspectRatio="xMidYMid meet">
<metadata>
Created by potrace 1.10, written by Peter Selinger 2001-2011
</metadata>
<g transform="translate(0.000000,108.000000) scale(0.100000,-0.100000)"
fill="#ffffff" stroke="none">
<path d="M1635 1060 c-17 -7 -15 -9 11 -9 63 -2 94 -63 94 -186 0 -124 -31
-251 -98 -402 -28 -65 -42 -78 -42 -40 0 12 -10 84 -22 160 l-21 137 -66 0
-66 0 -105 -179 -105 -180 -18 72 c-9 40 -25 78 -34 85 -16 11 -16 12 1 12 59
0 106 65 90 123 -15 50 -59 67 -179 67 l-100 0 -38 -182 c-21 -101 -38 -186
-37 -190 0 -5 22 -8 49 -8 l49 0 14 73 c13 70 14 72 43 72 28 0 31 -3 44 -60
7 -33 15 -66 17 -73 3 -9 28 -12 101 -10 l98 3 20 37 20 38 78 0 77 0 0 -40
c0 -39 1 -40 35 -40 l35 0 -36 -49 c-19 -28 -62 -75 -95 -105 -117 -109 -211
-81 -226 69 -8 80 -23 67 -23 -20 0 -114 33 -179 96 -191 110 -21 301 181 409
432 111 259 126 517 32 574 -34 21 -69 24 -102 10z m115 -68 c0 -15 2 -15 10
-2 8 12 10 10 10 -10 l-1 -25 -19 24 c-21 25 -27 46 -10 36 6 -3 10 -14 10
-23z m27 -154 c-2 -13 -4 -3 -4 22 0 25 2 35 4 23 2 -13 2 -33 0 -45z m-763
-149 c10 15 59 14 75 -1 11 -10 14 -10 18 0 9 23 93 10 93 -14 0 -8 7 -14 15
-14 23 0 20 -62 -4 -82 -11 -9 -22 -14 -25 -11 -3 4 -6 1 -6 -5 0 -7 -6 -12
-14 -12 -13 0 -13 4 0 28 7 15 14 33 14 40 0 49 -116 74 -137 30 -19 -38 -22
-82 -8 -101 11 -15 19 -16 56 -8 40 9 71 4 42 -6 -9 -3 -6 -11 8 -26 11 -12
18 -30 15 -39 -2 -10 0 -16 4 -13 8 5 30 -55 30 -82 0 -19 -47 -16 -54 3 -3 9
-6 28 -7 42 -1 47 -31 87 -69 90 -42 4 -53 -7 -66 -71 -6 -30 -15 -51 -22 -50
-7 2 -12 -5 -12 -14 0 -15 -2 -15 -13 2 -9 12 -12 35 -9 59 3 28 7 35 14 25 6
-10 8 -2 3 23 -3 20 -2 39 3 41 4 3 9 19 10 36 1 17 7 42 12 56 6 15 10 41 10
58 0 22 3 28 9 18 6 -9 11 -10 15 -2z m519 -21 c14 -30 24 -83 42 -220 6 -49
32 -77 57 -62 6 4 3 -7 -7 -24 -18 -29 -19 -30 -41 -14 -13 9 -24 20 -24 25 0
4 -7 7 -15 7 -9 0 -15 9 -15 24 0 36 -21 47 -93 47 -72 1 -102 -11 -112 -41
-4 -11 -11 -18 -16 -15 -8 5 -13 -6 -11 -25 0 -3 -14 -7 -31 -8 -21 -1 -27 1
-19 7 8 4 13 11 13 15 -3 18 0 29 5 23 4 -3 19 17 34 46 38 74 83 151 90 157
3 3 11 18 18 33 7 15 16 26 21 23 5 -3 11 3 14 14 4 15 14 20 39 20 29 0 37
-5 51 -32z m-383 -37 c21 -39 -16 -71 -81 -71 -24 0 -29 4 -25 18 3 9 8 29 12
45 5 24 11 27 45 27 28 0 41 -5 49 -19z m577 -43 c-3 -8 -6 -5 -6 6 -1 11 2
17 5 13 3 -3 4 -12 1 -19z m-64 -153 c-3 -9 -8 -14 -10 -11 -3 3 -2 9 2 15 9
16 15 13 8 -4z m-229 -310 c-4 -8 -10 -12 -15 -9 -5 3 -9 0 -9 -5 0 -6 -6 -11
-12 -11 -7 1 -2 10 11 20 28 24 32 25 25 5z m-125 -30 c14 -1 36 -3 49 -3 41
-3 23 -22 -20 -21 -58 1 -78 8 -78 25 0 9 5 12 11 8 7 -4 24 -8 38 -9z"/>
<path d="M1463 653 c-7 -3 -13 -11 -13 -19 0 -8 -3 -14 -8 -14 -8 0 -47 -73
-57 -109 -5 -15 -2 -27 6 -32 21 -13 105 -11 116 4 14 17 -1 145 -18 162 -8 7
-20 11 -26 8z m30 -120 l5 -43 -49 0 c-27 0 -49 2 -49 5 0 3 17 37 38 75 l37
69 6 -32 c4 -18 9 -51 12 -74z"/>
<path d="M1794 1017 c35 -22 66 -60 66 -81 -1 -19 -2 -19 -21 7 -32 42 -42 32
-17 -15 18 -36 22 -61 24 -153 1 -60 11 -177 23 -260 11 -82 21 -156 21 -162
0 -9 19 -13 64 -13 l64 0 105 190 106 191 -57 -3 -56 -3 -72 -140 -72 -140 -6
45 c-3 25 -9 89 -12 143 l-7 97 -49 0 c-31 0 -47 4 -43 10 4 6 14 9 23 8 15
-3 17 9 20 77 2 44 -2 97 -8 117 -15 54 -56 98 -88 97 -25 0 -26 -1 -8 -12z
m114 -325 c15 -15 18 -31 15 -93 -2 -51 0 -69 7 -59 7 11 10 5 11 -25 2 -58
12 -89 32 -93 13 -3 22 6 30 27 7 19 17 29 25 26 8 -3 10 0 6 6 -7 13 74 179
94 192 7 5 10 12 7 17 -3 5 9 8 27 8 18 -1 27 -3 21 -5 -7 -3 -13 -9 -13 -14
0 -4 -12 -34 -26 -65 -19 -42 -28 -53 -35 -43 -7 11 -9 10 -9 -5 0 -30 -54
-136 -66 -132 -7 3 -10 -3 -7 -15 3 -11 -1 -21 -11 -25 -9 -3 -16 -12 -16 -18
0 -8 -14 -13 -39 -12 -33 0 -41 5 -46 24 -3 12 -3 28 1 34 4 6 3 8 -3 5 -14
-9 -26 72 -17 108 5 19 3 26 -4 21 -11 -7 -18 20 -26 107 -5 52 9 62 42 29z"/>
<path d="M1885 680 c4 -6 11 -8 16 -5 14 9 11 15 -7 15 -8 0 -12 -5 -9 -10z"/>
<path d="M1910 481 c0 -11 5 -23 10 -26 6 -3 10 3 10 14 0 11 -4 23 -10 26 -5
3 -10 -3 -10 -14z"/>
<path d="M1636 959 c-49 -43 -125 -137 -145 -179 -8 -18 -4 -15 16 10 61 77
120 134 164 159 25 14 44 32 42 39 -8 21 -29 13 -77 -29z"/>
<path d="M72 884 c-31 -21 -27 -68 6 -72 12 -2 22 -8 22 -13 0 -9 -13 -13 -42
-10 -10 1 -18 -3 -18 -8 0 -15 57 -14 67 2 4 6 13 34 19 60 9 38 9 47 -1 43
-7 -2 -17 0 -22 5 -5 5 -18 3 -31 -7z m38 -29 c0 -29 -28 -45 -40 -24 -11 17
6 49 25 49 9 0 15 -10 15 -25z"/>
<path d="M215 890 c-4 -6 -10 -8 -15 -5 -10 6 -35 -74 -26 -82 3 -3 8 0 10 8
21 59 27 69 41 69 8 0 15 5 15 10 0 13 -17 13 -25 0z"/>
<path d="M424 892 c-16 -2 -24 -15 -32 -53 -15 -62 -15 -69 -2 -69 6 0 10 8
10 18 0 9 5 34 11 55 7 28 15 37 27 35 25 -5 21 -41 -6 -54 -26 -13 -14 -28
13 -18 20 8 37 48 29 68 -7 17 -22 23 -50 18z"/>
<path d="M547 892 c-10 -2 -23 -15 -28 -30 -8 -21 -6 -29 10 -45 19 -19 21
-19 45 -3 46 30 25 90 -27 78z m31 -39 c-3 -31 -34 -44 -44 -19 -7 19 12 46
33 46 10 0 13 -9 11 -27z"/>
<path d="M267 858 c-3 -22 0 -37 9 -44 20 -16 64 -5 64 15 0 9 3 26 6 39 4 13
2 22 -5 22 -6 0 -11 -10 -11 -23 0 -26 -17 -47 -37 -47 -10 0 -12 9 -7 35 4
21 2 35 -4 35 -5 0 -12 -15 -15 -32z"/>
<path d="M8 685 l-4 -35 49 0 c41 0 48 -2 43 -17 -3 -10 -17 -70 -31 -133 -13
-63 -27 -125 -30 -137 -5 -22 -2 -23 47 -23 l53 0 29 143 c16 78 31 148 34
155 2 7 23 12 53 12 42 0 49 3 49 19 0 11 3 26 6 35 5 14 -11 16 -144 16
l-150 0 -4 -35z m29 -7 c-3 -8 -6 -5 -6 6 -1 11 2 17 5 13 3 -3 4 -12 1 -19z
m153 9 c0 -7 3 -8 8 -2 11 15 52 14 52 -2 0 -7 -10 -13 -22 -13 -27 -1 -72
-35 -64 -49 4 -5 2 -20 -3 -33 -5 -13 -15 -57 -21 -98 -11 -68 -28 -130 -35
-130 -19 0 -35 17 -35 35 0 37 12 85 20 80 4 -2 5 6 3 18 -2 12 3 51 10 87 15
69 10 90 -24 90 -11 0 -19 6 -19 13 0 9 20 13 65 14 45 2 65 -2 65 -10z m77
-9 c-3 -8 -6 -5 -6 6 -1 11 2 17 5 13 3 -3 4 -12 1 -19z"/>
<path d="M335 708 c-2 -7 -18 -80 -35 -163 -17 -82 -35 -162 -40 -178 l-9 -28
142 3 141 3 7 33 6 32 -89 0 c-80 0 -89 2 -84 18 3 9 8 29 12 45 6 27 7 27 85
27 l78 0 9 33 8 32 -79 3 -79 3 6 31 c3 17 6 34 6 39 0 4 39 10 87 11 l87 3 7
33 6 32 -134 0 c-98 0 -135 -3 -138 -12z m113 -27 c2 -6 -2 -11 -8 -11 -7 0
-22 -8 -33 -17 -17 -14 -21 -27 -19 -53 4 -41 15 -50 61 -50 39 0 38 -9 -2
-12 -15 -1 -27 -6 -27 -10 0 -4 -6 -8 -12 -8 -26 0 -40 -19 -48 -61 -10 -54 0
-69 47 -69 19 0 32 -4 29 -8 -3 -5 1 -9 9 -9 8 0 12 4 9 9 -3 4 4 8 15 8 12 0
21 -7 21 -14 0 -12 -18 -15 -89 -15 -118 0 -121 3 -93 112 12 45 27 112 34
149 10 54 15 65 26 56 7 -6 12 -7 11 -2 -1 5 -1 12 0 16 2 12 65 2 69 -11z
m43 10 c8 12 11 12 18 0 7 -12 13 -12 24 -3 15 12 30 5 21 -9 -7 -11 -94 -12
-94 -1 0 15 14 24 19 11 2 -8 6 -7 12 2z m26 -147 c-3 -3 -12 -4 -19 -1 -8 3
-5 6 6 6 11 1 17 -2 13 -5z"/>
<path d="M640 718 c0 -3 -67 -321 -75 -356 -5 -22 -3 -23 47 -20 l53 3 14 73
c13 69 15 72 42 72 30 0 37 -15 55 -112 6 -38 6 -38 55 -38 27 0 49 4 49 9 0
41 -34 149 -52 164 -27 22 -37 22 -31 -3 3 -11 9 -17 14 -14 9 5 11 0 13 -28
1 -7 4 -15 7 -18 15 -13 18 -58 4 -76 -14 -19 -14 -19 -30 1 -10 13 -14 32
-11 53 3 19 1 30 -5 27 -5 -4 -9 0 -9 8 0 23 -35 47 -68 47 -30 0 -32 -3 -52
-70 -20 -67 -40 -96 -48 -72 -2 7 -9 9 -14 5 -8 -4 -9 2 -5 18 4 13 14 62 23
109 9 47 21 89 25 95 5 5 9 22 9 38 0 45 17 67 50 67 17 0 30 -4 30 -10 0 -5
13 -10 29 -10 17 0 33 5 36 10 3 6 13 10 21 10 8 0 12 -4 9 -10 -4 -6 1 -7 10
-3 18 6 65 -39 65 -64 0 -28 -20 -52 -37 -46 -10 4 -14 2 -10 -4 4 -6 0 -14
-9 -17 -27 -10 -40 -6 -22 7 20 15 32 57 21 73 -22 32 -110 47 -131 22 -26
-34 -24 -93 5 -137 1 -2 8 1 15 6 21 17 66 24 74 12 10 -16 64 -2 91 23 33 31
32 96 -3 129 -23 22 -35 24 -140 27 -63 2 -114 2 -114 0z m168 -80 c32 -32 5
-67 -59 -75 l-42 -6 6 33 c4 18 7 39 7 46 0 18 71 19 88 2z"/>
<path d="M2240 715 c0 -8 -70 -339 -76 -357 -5 -16 2 -18 48 -18 l53 0 38 183
c20 100 37 185 37 190 0 4 -22 7 -50 7 -27 0 -50 -2 -50 -5z m72 -30 c-3 -5
-7 -21 -9 -35 -1 -14 -14 -79 -28 -145 -14 -66 -26 -125 -27 -130 -1 -6 -12
-11 -25 -11 -18 0 -23 5 -23 26 0 37 33 194 42 198 5 2 8 16 8 32 0 50 16 78
43 76 14 0 22 -5 19 -11z"/>
<path d="M2360 716 c0 -2 11 -86 25 -187 14 -101 25 -185 25 -186 0 -2 28 -3
63 -3 l62 0 89 163 c49 89 98 174 108 190 l19 27 -58 0 -58 0 -75 -147 -74
-148 -8 105 c-4 58 -10 124 -13 148 l-6 42 -50 0 c-27 0 -49 -2 -49 -4z m70
-40 c0 5 5 2 10 -6 6 -8 10 -40 9 -70 -1 -30 1 -62 4 -70 3 -8 8 -34 10 -58 3
-24 8 -46 12 -50 13 -13 38 16 78 93 23 44 44 82 48 85 3 3 13 22 22 43 10 20
24 37 32 37 8 0 15 5 15 10 0 6 5 10 10 10 12 0 14 -47 2 -52 -4 -1 -20 -28
-35 -58 -33 -66 -73 -136 -98 -172 -11 -14 -19 -31 -19 -38 0 -6 -5 -8 -10 -5
-6 4 -16 2 -23 -3 -15 -13 -67 -10 -68 3 -1 6 -3 19 -4 30 -2 11 -8 61 -14
110 -6 50 -13 104 -16 120 -2 17 -2 39 2 49 5 19 6 19 19 1 8 -10 14 -15 14
-9z"/>
<path d="M2693 530 l-111 -190 57 0 c58 0 58 0 76 40 l18 40 79 0 78 0 0 -40
0 -40 54 0 c46 0 54 3 51 18 -2 9 -16 95 -31 190 l-27 172 -66 0 -66 -1 -112
-189z m210 154 c15 -9 24 -42 43 -155 28 -172 28 -169 9 -169 -8 0 -15 6 -16
13 0 9 -2 9 -6 -1 -8 -20 -23 -3 -23 28 0 39 -30 54 -102 52 -67 -1 -89 -11
-108 -46 -7 -14 -19 -26 -27 -26 -7 0 -13 -4 -13 -10 0 -5 -4 -10 -10 -10 -21
0 -9 40 30 101 22 35 49 82 61 103 16 30 23 36 31 25 7 -10 8 -8 3 7 -3 13 0
28 10 38 9 8 15 17 14 18 -1 2 3 12 10 23 15 23 63 27 94 9z"/>
<path d="M2829 628 c-14 -18 -30 -46 -37 -61 -6 -15 -18 -30 -26 -33 -11 -4
-12 -12 -4 -35 9 -27 13 -29 63 -29 31 0 57 5 64 13 16 20 2 143 -19 162 -16
14 -19 13 -41 -17z m44 -95 l5 -43 -50 0 c-27 0 -48 4 -46 8 2 5 19 38 38 75
l35 67 6 -33 c4 -17 9 -51 12 -74z"/>
<path d="M1816 605 c-40 -146 -128 -317 -224 -432 -46 -55 -145 -123 -181
-123 -14 0 -33 -5 -41 -10 -13 -9 -13 -11 0 -20 19 -12 50 -13 50 -1 0 5 12
11 27 14 26 5 26 4 8 -9 -18 -13 -18 -14 6 -14 14 0 50 18 81 39 84 61 160
161 232 309 63 128 76 175 68 252 l-7 65 -19 -70z m-162 -402 c-15 -21 -31
-40 -34 -43 -4 -3 -11 -12 -16 -21 -12 -22 -106 -99 -119 -98 -5 0 0 7 13 16
36 25 96 84 137 136 44 56 60 64 19 10z"/>
</g>
</svg>
