<?xml version="1.0" standalone="no"?>
<!DOCTYPE svg PUBLIC "-//W3C//DTD SVG 20010904//EN"
 "http://www.w3.org/TR/2001/REC-SVG-20010904/DTD/svg10.dtd">
<svg version="1.0" xmlns="http://www.w3.org/2000/svg"
 width="845.000000pt" height="527.000000pt" viewBox="0 0 845.000000 527.000000"
 preserveAspectRatio="xMidYMid meet">

<g transform="translate(0.000000,527.000000) scale(0.100000,-0.100000)"
fill="#000000" stroke="none">
<path d="M2330 3345 l0 -425 55 0 55 0 0 174 0 174 168 4 c181 5 221 14 275
66 53 50 72 99 72 187 0 67 -4 87 -25 125 -32 56 -90 97 -159 110 -29 5 -141
10 -247 10 l-194 0 0 -425z m465 295 c83 -78 71 -199 -25 -247 -40 -21 -59
-23 -187 -23 l-143 0 0 151 0 150 164 -3 c160 -3 165 -4 191 -28z"/>
<path d="M3243 3505 l-43 -45 0 40 0 40 -50 0 -50 0 0 -310 0 -310 55 0 55 0
0 193 c0 218 11 281 58 317 27 22 73 24 113 6 13 -6 20 3 32 39 l16 46 -34 15
c-19 8 -51 14 -71 14 -31 0 -45 -8 -81 -45z"/>
<path d="M3675 3541 c-79 -21 -135 -69 -174 -151 -23 -48 -26 -68 -26 -160 0
-92 3 -112 26 -160 46 -96 114 -146 217 -156 153 -16 274 73 302 222 33 172
-24 324 -143 386 -43 21 -153 32 -202 19z m138 -105 c69 -28 107 -102 107
-207 0 -147 -87 -237 -207 -214 -48 9 -107 68 -122 120 -14 50 -14 139 -1 187
28 100 131 153 223 114z"/>
<path d="M4900 3537 c-76 -22 -116 -53 -146 -113 -15 -30 -25 -56 -23 -58 2
-2 27 -7 54 -11 51 -6 51 -6 68 30 24 50 72 69 157 62 56 -4 68 -9 92 -36 19
-21 28 -42 28 -65 0 -42 -15 -48 -168 -71 -57 -8 -121 -24 -142 -35 -110 -56
-133 -201 -45 -279 82 -72 224 -66 331 15 l31 23 16 -39 c15 -40 16 -40 71
-40 l56 0 -12 28 c-7 16 -14 119 -17 252 -7 257 -12 276 -90 319 -53 29 -189
38 -261 18z m228 -378 c-6 -62 -30 -97 -89 -127 -88 -46 -209 -13 -209 58 0
49 36 69 161 91 62 11 115 22 118 25 16 15 23 -2 19 -47z"/>
<path d="M4124 3448 c18 -51 69 -191 112 -310 l78 -218 67 0 67 0 22 63 c12
34 59 173 105 310 l84 247 -58 0 -59 0 -83 -246 -83 -245 -84 245 -85 246 -58
0 -59 0 34 -92z"/>
<path d="M3435 2429 l-36 -70 37 3 c32 3 44 12 91 71 l54 67 -55 0 -56 0 -35
-71z"/>
<path d="M2280 2135 l0 -355 45 0 45 0 0 144 0 144 143 4 c124 3 148 6 190 27
116 56 143 238 49 332 -49 49 -103 59 -307 59 l-165 0 0 -355z m374 261 c44
-18 70 -73 63 -133 -10 -89 -58 -113 -227 -113 l-120 0 0 130 0 130 125 0 c84
0 137 -5 159 -14z"/>
<path d="M4090 2445 l0 -45 45 0 45 0 0 45 0 45 -45 0 -45 0 0 -45z"/>
<path d="M3863 2452 l-43 -23 0 -65 0 -64 -30 0 c-28 0 -30 -2 -30 -40 0 -38
2 -40 30 -40 l30 0 0 -180 c0 -207 8 -240 60 -259 38 -13 99 -14 118 -3 8 6
10 19 6 40 -6 28 -11 32 -38 32 -54 0 -56 8 -56 197 l0 173 45 0 45 0 0 40 0
40 -45 0 -44 0 -3 88 -3 87 -42 -23z"/>
<path d="M3044 2274 l-34 -35 0 30 c0 29 -2 31 -40 31 l-40 0 0 -260 0 -260
45 0 45 0 0 168 c0 92 4 182 10 201 19 67 71 97 121 70 17 -9 22 -5 34 25 19
45 20 42 -16 55 -58 20 -89 14 -125 -25z"/>
<path d="M3372 2296 c-64 -21 -87 -40 -112 -91 -12 -25 -21 -48 -19 -49 2 -2
22 -7 45 -10 39 -7 42 -6 54 24 18 44 61 63 128 58 45 -4 60 -10 79 -32 13
-15 23 -40 23 -56 0 -34 -21 -42 -145 -60 -44 -7 -97 -22 -119 -33 -93 -52
-101 -186 -15 -248 29 -20 46 -24 110 -24 67 0 81 3 126 31 l49 31 17 -29 c14
-24 22 -28 62 -28 44 0 45 1 33 23 -8 14 -14 88 -18 217 -6 215 -11 235 -73
267 -42 21 -171 27 -225 9z m194 -342 c-17 -89 -182 -141 -231 -71 -43 61 -4
100 125 122 52 9 97 19 100 22 8 8 12 -38 6 -73z"/>
<path d="M4436 2295 c-83 -29 -128 -83 -147 -173 -14 -67 -7 -163 17 -221 30
-74 118 -131 205 -131 93 0 186 65 208 144 6 22 9 41 8 42 -1 1 -20 5 -42 8
-39 7 -41 6 -53 -27 -19 -52 -54 -79 -109 -84 -39 -4 -55 0 -83 19 -47 32 -63
69 -68 154 -5 89 20 153 70 184 64 39 151 15 178 -49 12 -31 15 -32 54 -25 23
3 43 8 44 9 2 2 -5 23 -16 47 -43 99 -156 142 -266 103z"/>
<path d="M4922 2296 c-64 -21 -87 -40 -112 -91 -12 -25 -21 -48 -19 -49 2 -2
22 -7 45 -10 39 -7 42 -6 54 24 18 44 61 63 128 58 45 -4 60 -10 79 -32 13
-15 23 -40 23 -56 0 -34 -21 -42 -145 -60 -44 -7 -97 -22 -119 -33 -93 -52
-101 -186 -15 -248 29 -20 46 -24 110 -24 67 0 81 3 126 31 l49 31 17 -29 c14
-24 22 -28 62 -28 44 0 45 1 33 23 -8 14 -14 88 -18 217 -6 215 -11 235 -73
267 -42 21 -171 27 -225 9z m194 -342 c-17 -89 -182 -141 -231 -71 -43 61 -4
100 125 122 52 9 97 19 100 22 8 8 12 -38 6 -73z"/>
<path d="M4090 2040 l0 -260 45 0 45 0 0 260 0 260 -45 0 -45 0 0 -260z"/>
</g>
</svg>
