<?xml version="1.0" standalone="no"?>
<!-- Generator: Adobe Fireworks 10, Export SVG Extension by Aaron Beall (http://fireworks.abeall.com) . Version: 0.6.1  -->
<!DOCTYPE svg PUBLIC "-//W3C//DTD SVG 1.1//EN" "http://www.w3.org/Graphics/SVG/1.1/DTD/svg11.dtd">
<svg id="Untitled-Page%201" viewBox="0 0 219 56" style="background-color:#ffffff00" version="1.1"
	xmlns="http://www.w3.org/2000/svg" xmlns:xlink="http://www.w3.org/1999/xlink" xml:space="preserve"
	x="0px" y="0px" width="219px" height="56px"
>
	<g id="Layer%201">
		<g>
			<path d="M 10.9447 20.8023 C 10.9447 19.8459 11.541 19.25 12.498 19.25 L 19.3979 19.25 C 20.355 19.25 20.9512 19.8459 20.9512 20.8023 L 20.9512 47.0727 C 20.9512 48.0291 20.355 48.625 19.3979 48.625 L 12.498 48.625 C 11.541 48.625 10.9447 48.0291 10.9447 47.0727 L 10.9447 20.8023 ZM 16.65 16.1 L 16.38 16.07 C 17.2086 15.8427 17.8242 14.9727 17.8242 13.9375 C 17.8242 12.7294 16.9842 11.75 15.9479 11.75 C 14.9117 11.75 14.0717 12.7294 14.0717 13.9375 C 14.0717 14.4998 14.256 15.0125 14.555 15.4 C 14.3934 15.2906 14.2365 15.1703 14.09 15.04 C 13.6888 14.5275 13.4463 13.8726 13.4463 13.1563 C 13.4463 11.5166 14.7063 10.1875 16.2607 10.1875 C 17.815 10.1875 19.075 11.5166 19.075 13.1563 C 19.075 14.6579 18.0219 15.9016 16.65 16.1 ZM 17.075 16.12 L 17.035 16.12 L 16.725 16.105 C 18.3934 15.9419 19.7004 14.4768 19.7004 12.6875 C 19.7004 10.789 18.2304 9.25 16.417 9.25 C 14.6036 9.25 13.1336 10.789 13.1336 12.6875 C 13.1336 13.4499 13.3694 14.154 13.77 14.725 C 12.9898 13.8794 12.5082 12.7202 12.5082 11.4375 C 12.5082 8.8486 14.4682 6.75 16.8861 6.75 C 19.304 6.75 21.2639 8.8486 21.2639 11.4375 C 21.2639 13.9576 19.404 16.0126 17.075 16.12 ZM 10.9447 9.875 C 10.9447 6.4232 13.7447 3.625 17.1988 3.625 C 20.6529 3.625 23.4529 6.4232 23.4529 9.875 C 23.4529 13.3268 20.6529 16.125 17.1988 16.125 L 17.075 16.12 C 19.7513 16.0182 21.8893 13.7517 21.8893 10.9688 C 21.8893 8.121 19.6494 5.8125 16.8861 5.8125 C 14.1228 5.8125 11.8828 8.121 11.8828 10.9688 C 11.8828 12.9971 13.0175 14.7531 14.67 15.595 C 12.4748 14.6248 10.9447 12.4281 10.9447 9.875 ZM 0 4.1351 L 0 51.8649 C 0 54.3354 1.1521 55.5 3.5961 55.5 L 28.2998 55.5 C 30.7438 55.5 31.8959 54.3354 31.8959 51.8649 L 31.8959 4.1351 C 31.8959 1.6646 30.7438 0.5 28.2998 0.5 L 3.5961 0.5 C 1.1521 0.5 0 1.6646 0 4.1351 Z" fill="#8a8a8a"/>
			<text x="37.6208" y="49.2538" width="69.1078" fill="#8a8a8a" style="font-family: Palatino Linotype; font-size: 100px; font-weight: bold; color: #8a8a8a; text-align: left; "><tspan><![CDATA[itec]]></tspan></text>
			<text x="105.6208" y="49.2538" width="114.9071" fill="#111111" style="font-family: Palatino Linotype; font-size: 100px; color: #111111; text-align: left; "><tspan><![CDATA[online]]></tspan></text>
			<text x="37.6208" y="55.4105" width="125.5391" fill="#8a8a8a" style="font-family: Palatino Linotype; font-size: 32px; color: #8a8a8a; text-align: left; "><tspan><![CDATA[Painel administrativo]]></tspan></text>
		</g>
	</g>
</svg>