<?xml version="1.0" standalone="no"?>
<!-- Generator: Adobe Fireworks 10, Export SVG Extension by Aaron Beall (http://fireworks.abeall.com) . Version: 0.6.1  -->
<!DOCTYPE svg PUBLIC "-//W3C//DTD SVG 1.1//EN" "http://www.w3.org/Graphics/SVG/1.1/DTD/svg11.dtd">
<svg id="Untitled-Page%201" viewBox="0 0 100 30" style="background-color:#ffffff00" version="1.1"
	xmlns="http://www.w3.org/2000/svg" xmlns:xlink="http://www.w3.org/1999/xlink" xml:space="preserve"
	x="0px" y="0px" width="100px" height="30px"
>
	<g id="Layer%201">
		<path d="M 42.6611 11.7343 L 42.6611 17.6342 C 42.6611 19.2549 42.2667 20.47 41.4833 21.2777 C 40.7004 22.0854 39.5279 22.488 37.9567 22.488 C 37.5574 22.488 37.1943 22.475 36.8697 22.4496 C 36.545 22.4183 36.2421 22.3799 35.965 22.3275 L 36.2247 19.1421 C 36.3541 19.1599 36.485 19.1729 36.6057 19.1777 C 36.7263 19.1853 36.8394 19.1896 36.9438 19.1896 C 37.6872 19.1896 38.2072 19.0216 38.4972 18.6887 C 38.7921 18.3511 38.9473 17.7038 38.9738 16.7432 L 38.9738 11.7343 L 42.6611 11.7343 ZM 4.5665 14.2282 L 3.7879 14.2282 L 3.7446 16.4844 L 4.6487 16.4844 C 5.021 16.4844 5.3023 16.385 5.4977 16.1943 C 5.6881 16.0042 5.7866 15.7231 5.7866 15.3601 C 5.7866 14.9717 5.6881 14.6821 5.4928 14.5005 C 5.298 14.319 4.9913 14.2282 4.5665 14.2282 L 4.5665 14.2282 ZM 4.9301 11.7343 C 5.8223 11.7343 6.5099 11.7997 6.9942 11.9244 C 7.4796 12.0498 7.8907 12.2573 8.2202 12.5463 C 8.5611 12.8408 8.8262 13.2335 9.0123 13.7225 C 9.1985 14.2147 9.2926 14.755 9.2926 15.3434 C 9.2926 16.4623 8.9723 17.3397 8.3231 17.9923 C 7.6749 18.6406 6.7962 18.9697 5.6957 18.9697 L 3.7998 18.9697 L 3.7446 22.3411 L 0 22.3411 L 0.1866 11.7343 L 4.9301 11.7343 ZM 13.6519 14.2715 L 12.6001 14.2715 L 12.5693 16.3591 L 13.6308 16.3591 C 14.002 16.3591 14.279 16.2732 14.4651 16.1084 C 14.6512 15.9398 14.7421 15.6843 14.7421 15.3434 C 14.7421 14.9884 14.6512 14.7204 14.4651 14.5437 C 14.279 14.3622 14.0106 14.2715 13.6519 14.2715 L 13.6519 14.2715 ZM 13.7173 11.7343 C 15.3362 11.7343 16.4995 11.9807 17.2234 12.4647 C 17.9414 12.9489 18.2958 13.7268 18.2958 14.8026 C 18.2958 15.607 18.114 16.2289 17.7461 16.6746 C 17.3782 17.1241 16.8079 17.418 16.0363 17.5612 C 16.4178 17.6638 16.7511 17.8589 17.0324 18.1484 C 17.3187 18.4337 17.548 18.8136 17.725 19.276 L 18.9451 22.3411 L 14.8942 22.3411 L 14.0377 19.652 C 13.9468 19.3803 13.8293 19.1809 13.6773 19.0648 C 13.5356 18.9518 13.3062 18.8962 13.007 18.8962 L 12.5871 18.8962 L 12.526 22.3411 L 8.7862 22.3411 L 8.9723 11.7343 L 13.7173 11.7343 ZM 51.9537 11.7343 L 51.9105 14.4395 L 46.8987 14.4395 L 46.8765 15.6248 L 51.8986 15.6248 L 51.851 18.1738 L 46.8332 18.1738 L 46.7991 19.5527 L 51.8196 19.5527 L 51.7762 22.3411 L 43.0502 22.3411 L 43.2455 11.7343 L 51.9537 11.7343 ZM 60.1567 14.9452 C 59.8055 14.8933 59.5031 14.8544 59.2515 14.829 C 59.001 14.8026 58.7808 14.7901 58.5855 14.7901 C 57.6803 14.7901 56.9709 14.9884 56.4646 15.3823 C 55.963 15.7708 55.7071 16.3164 55.7071 17.0198 C 55.7071 17.7249 55.9408 18.2603 56.4083 18.632 C 56.8714 18.9994 57.5461 19.1853 58.434 19.1853 C 58.6974 19.1853 58.9713 19.1777 59.2482 19.1555 C 59.5253 19.1334 59.8099 19.108 60.1091 19.0648 L 60.5381 22.1892 C 59.962 22.2979 59.4166 22.3843 58.9058 22.4404 C 58.3906 22.4972 57.9021 22.5269 57.4254 22.5269 C 55.6503 22.5269 54.244 22.0298 53.2182 21.0308 C 52.1875 20.0372 51.6735 18.6796 51.6735 16.9598 C 51.6735 15.2828 52.2183 13.9651 53.3134 13.0045 C 54.408 12.0449 55.9197 11.5657 57.8496 11.5657 C 58.2522 11.5657 58.6855 11.5825 59.1531 11.6213 C 59.6194 11.6646 60.1226 11.7208 60.6588 11.7997 L 60.1567 14.9452 ZM 69.826 11.7343 L 69.7664 14.8722 L 66.671 14.8722 L 66.5374 22.3411 L 62.7933 22.3411 L 62.9312 14.8722 L 59.8277 14.8722 L 59.8845 11.7343 L 69.826 11.7343 ZM 73.3628 11.7343 L 73.2719 17.5001 L 73.2719 17.6163 C 73.2719 18.2214 73.3628 18.6245 73.5446 18.8314 C 73.7308 19.0394 74.0554 19.1421 74.5276 19.1421 C 74.9984 19.1421 75.3322 19.0345 75.5226 18.8103 C 75.7174 18.5845 75.8176 18.183 75.8295 17.6039 L 75.9036 11.7343 L 79.6082 11.7343 L 79.5309 17.9329 C 79.5173 19.4365 79.0807 20.5684 78.2156 21.3383 C 77.3488 22.1077 76.0767 22.488 74.3925 22.488 C 72.7704 22.488 71.5448 22.1255 70.7138 21.3907 C 69.887 20.6548 69.4716 19.5748 69.4716 18.1442 L 69.4716 18.0237 L 69.5754 11.7343 L 73.3628 11.7343 ZM 85.707 15.4033 C 85.6594 15.2353 85.5863 14.9241 85.4819 14.4659 C 85.4224 14.2196 85.3748 14.0159 85.3391 13.8743 C 85.3092 13.977 85.2405 14.2147 85.1318 14.5778 C 85.0237 14.9452 84.937 15.2483 84.8716 15.4865 L 84.2266 17.8929 L 86.3827 17.8929 L 85.707 15.4033 ZM 87.8024 11.7343 L 91.5812 22.3411 L 87.5433 22.3411 L 87.0878 20.604 L 83.4908 20.604 L 83.0634 22.3411 L 78.92 22.3411 L 82.9725 11.7343 L 87.8024 11.7343 ZM 95.0662 11.7343 L 94.9362 19.2463 L 100 19.2463 L 99.9437 22.3411 L 91.1056 22.3411 L 91.2906 11.7343 L 95.0662 11.7343 Z" fill="#ffffff"/>
		<path d="M 3.5406 28.5261 L 3.5406 29.0961 L 2.3373 29.0961 L 2.0733 29.0918 C 1.8098 29.0918 1.6237 29.0885 1.5236 29.0837 C 1.4241 29.0751 1.3034 29.0529 1.1649 29.0232 C 0.8046 28.941 0.541 28.733 0.3728 28.4089 C 0.2462 28.1587 0.1818 27.86 0.1818 27.5104 C 0.1818 26.901 0.3338 26.4682 0.6363 26.2051 C 0.8954 25.9846 1.2726 25.8717 1.7655 25.8717 C 2.0901 25.8717 2.3715 25.9285 2.61 26.0365 C 2.7615 26.1051 2.8871 26.1916 2.9823 26.2958 C 3.0775 26.3995 3.1506 26.5293 3.2117 26.6941 C 3.3069 26.9485 3.3546 27.2073 3.3546 27.4715 C 3.3546 27.8821 3.2339 28.2322 2.9952 28.5261 L 3.5406 28.5261 ZM 1.7698 26.4131 C 1.4885 26.4131 1.2769 26.499 1.1427 26.6676 C 1.0042 26.84 0.9344 27.0998 0.9344 27.4499 C 0.9344 27.753 0.982 27.9983 1.0697 28.1841 C 1.1903 28.4353 1.4241 28.5607 1.7698 28.5607 C 2.0988 28.5607 2.3238 28.4446 2.4504 28.2188 C 2.55 28.0415 2.5966 27.7914 2.5966 27.4629 C 2.5966 27.1598 2.5365 26.9183 2.4191 26.728 C 2.2897 26.52 2.0733 26.4131 1.7698 26.4131 L 1.7698 26.4131 ZM 5.3976 28.5947 L 5.3976 26.7583 L 6.0382 26.7583 L 6.0382 29.0961 L 4.7694 29.0961 C 4.5876 29.0961 4.4448 29.0837 4.3463 29.0573 C 4.2462 29.0318 4.1602 28.98 4.0812 28.9103 C 3.9172 28.7595 3.8356 28.5219 3.8356 28.1934 L 3.8356 26.7583 L 4.4756 26.7583 L 4.4756 28.262 C 4.4756 28.3657 4.5059 28.4478 4.5579 28.5088 C 4.6141 28.5651 4.692 28.5947 4.7873 28.5947 L 5.3976 28.5947 ZM 8.1721 27.6741 C 8.1721 27.5104 8.137 27.3975 8.0726 27.3413 C 8.0071 27.2856 7.8777 27.2549 7.6824 27.2549 L 6.5922 27.2549 L 6.5922 26.7583 L 7.6824 26.7583 C 7.8777 26.7583 8.012 26.7627 8.0861 26.767 C 8.1591 26.7756 8.2322 26.7881 8.3106 26.8146 C 8.6656 26.9485 8.8338 27.2684 8.817 27.7784 L 8.817 29.0961 L 7.4579 29.0961 C 7.215 29.0961 7.0467 29.0885 6.9558 29.0751 C 6.8606 29.0621 6.7783 29.0318 6.7086 28.9843 C 6.5192 28.8546 6.424 28.6644 6.424 28.4045 C 6.424 28.2452 6.458 28.1069 6.5359 27.9821 C 6.6144 27.86 6.7129 27.7784 6.8351 27.7351 C 6.9466 27.6963 7.1284 27.6741 7.3843 27.6741 L 8.1721 27.6741 ZM 8.1721 28.1755 L 7.4276 28.1755 L 7.3194 28.1711 C 7.2458 28.1711 7.1895 28.1934 7.1462 28.2322 C 7.103 28.2706 7.0807 28.3224 7.0807 28.3878 C 7.0807 28.4656 7.1073 28.5175 7.1598 28.5472 C 7.2117 28.5829 7.3026 28.5947 7.4276 28.5947 L 8.1721 28.5947 L 8.1721 28.1755 ZM 9.9419 29.0961 L 9.2969 29.0961 L 9.2969 25.8939 L 9.9419 25.8939 L 9.9419 29.0961 ZM 10.457 26.7583 L 11.1019 26.7583 L 11.1019 29.0961 L 10.457 29.0961 L 10.457 26.7583 ZM 10.457 26.5157 L 10.457 25.8939 L 11.1019 25.8939 L 11.1019 26.5157 L 10.457 26.5157 ZM 13.1844 26.7583 L 13.1844 25.8939 L 13.8293 25.8939 L 13.8293 29.0961 L 12.7213 29.0961 C 12.4962 29.0961 12.3274 29.0793 12.21 29.0453 C 11.9378 28.9578 11.7307 28.7898 11.5964 28.5348 C 11.5056 28.3613 11.4612 28.1544 11.4612 27.9124 C 11.4612 27.5104 11.5964 27.1997 11.8643 26.9739 C 12.0417 26.8323 12.2798 26.7583 12.5779 26.7583 L 13.1844 26.7583 ZM 13.1844 28.5947 L 13.1844 27.2549 L 12.7213 27.2549 C 12.5141 27.2549 12.3577 27.3245 12.2533 27.4629 C 12.1624 27.579 12.1148 27.7308 12.1148 27.9124 C 12.1148 28.1755 12.1938 28.3657 12.3442 28.4786 C 12.4486 28.5564 12.5735 28.5947 12.7213 28.5947 L 13.1844 28.5947 ZM 15.9633 27.6741 C 15.9633 27.5104 15.9335 27.3975 15.8637 27.3413 C 15.7994 27.2856 15.6684 27.2549 15.4747 27.2549 L 14.3834 27.2549 L 14.3834 26.7583 L 15.4747 26.7583 C 15.6684 26.7583 15.8026 26.7627 15.8767 26.767 C 15.9498 26.7756 16.0244 26.7881 16.1018 26.8146 C 16.4562 26.9485 16.6261 27.2684 16.6083 27.7784 L 16.6083 29.0961 L 15.2486 29.0961 C 15.0073 29.0961 14.8374 29.0885 14.7465 29.0751 C 14.6512 29.0621 14.5696 29.0318 14.5008 28.9843 C 14.3098 28.8546 14.2146 28.6644 14.2146 28.4045 C 14.2146 28.2452 14.2535 28.1069 14.3266 27.9821 C 14.4051 27.86 14.5051 27.7784 14.6258 27.7351 C 14.7389 27.6963 14.9207 27.6741 15.1755 27.6741 L 15.9633 27.6741 ZM 15.9633 28.1755 L 15.2188 28.1755 L 15.11 28.1711 C 15.037 28.1711 14.9802 28.1934 14.9374 28.2322 C 14.8942 28.2706 14.873 28.3224 14.873 28.3878 C 14.873 28.4656 14.8985 28.5175 14.9504 28.5472 C 15.0024 28.5829 15.0933 28.5947 15.2188 28.5947 L 15.9633 28.5947 L 15.9633 28.1755 ZM 18.6561 26.7583 L 18.6561 25.8939 L 19.3011 25.8939 L 19.3011 29.0961 L 18.193 29.0961 C 17.9679 29.0961 17.7937 29.0793 17.6817 29.0453 C 17.4095 28.9578 17.2012 28.7898 17.0671 28.5348 C 16.9761 28.3613 16.9329 28.1544 16.9329 27.9124 C 16.9329 27.5104 17.0671 27.1997 17.3348 26.9739 C 17.5123 26.8323 17.7504 26.7583 18.0496 26.7583 L 18.6561 26.7583 ZM 18.6561 28.5947 L 18.6561 27.2549 L 18.193 27.2549 C 17.9847 27.2549 17.8294 27.3245 17.725 27.4629 C 17.6341 27.579 17.5865 27.7308 17.5865 27.9124 C 17.5865 28.1755 17.6644 28.3657 17.8159 28.4786 C 17.9203 28.5564 18.0453 28.5947 18.193 28.5947 L 18.6561 28.5947 ZM 21.7288 27.6741 L 21.7288 28.1755 L 20.3702 28.1755 C 20.3821 28.3273 20.4346 28.4353 20.5206 28.4996 C 20.6072 28.5651 20.7457 28.5947 20.941 28.5947 L 21.7288 28.5947 L 21.7288 29.0961 L 20.8723 29.0961 C 20.6862 29.0961 20.5341 29.0793 20.4178 29.0453 C 20.3004 29.014 20.1884 28.9578 20.084 28.8805 C 19.8026 28.6601 19.6598 28.3316 19.6598 27.8989 C 19.6598 27.6146 19.7328 27.3678 19.8848 27.1554 C 19.9888 27.0139 20.1099 26.9096 20.2571 26.8491 C 20.4 26.7881 20.5904 26.7583 20.8247 26.7583 L 21.7288 26.7583 L 21.7288 27.2549 L 20.8723 27.2549 C 20.6948 27.2549 20.5731 27.2856 20.4995 27.3456 C 20.4297 27.4066 20.387 27.5148 20.3702 27.6741 L 21.7288 27.6741 ZM 25.3734 27.6741 L 25.3734 28.1755 L 24.0191 28.1755 C 24.031 28.3273 24.0792 28.4353 24.1652 28.4996 C 24.2517 28.5651 24.3945 28.5947 24.5898 28.5947 L 25.3734 28.5947 L 25.3734 29.0961 L 24.5163 29.0961 C 24.3302 29.0961 24.1787 29.0793 24.0624 29.0453 C 23.9449 29.014 23.8362 28.9578 23.7285 28.8805 C 23.4471 28.6601 23.3043 28.3316 23.3043 27.8989 C 23.3043 27.6146 23.3817 27.3678 23.5294 27.1554 C 23.6333 27.0139 23.7588 26.9096 23.9017 26.8491 C 24.0445 26.7881 24.2349 26.7583 24.4687 26.7583 L 25.3734 26.7583 L 25.3734 27.2549 L 24.5163 27.2549 C 24.3437 27.2549 24.2177 27.2856 24.1489 27.3456 C 24.0743 27.4066 24.031 27.5148 24.0191 27.6741 L 25.3734 27.6741 ZM 27.1215 29.0961 L 27.1215 25.8939 L 27.8021 25.8939 L 27.8021 29.0961 L 27.1215 29.0961 ZM 28.3248 26.7583 L 29.5671 26.7583 C 29.7532 26.7583 29.8965 26.7713 29.9918 26.7967 C 30.0914 26.8231 30.1822 26.875 30.2596 26.9442 C 30.4246 27.0955 30.5069 27.3289 30.5069 27.6579 L 30.5069 29.0961 L 29.8619 29.0961 L 29.8619 27.5834 C 29.8619 27.4672 29.8365 27.3856 29.7845 27.3332 C 29.7321 27.2813 29.6504 27.2549 29.5286 27.2549 L 28.9697 27.2549 L 28.9697 29.0961 L 28.3248 29.0961 L 28.3248 26.7583 ZM 32.0695 26.7238 C 32.5023 26.7238 32.8182 26.8491 33.0255 27.0998 C 33.2159 27.3245 33.3112 27.6098 33.3112 27.9556 C 33.3112 28.3224 33.1905 28.6125 32.9525 28.833 C 32.7366 29.0318 32.4373 29.1312 32.0559 29.1312 C 31.6669 29.1312 31.3601 29.0189 31.1382 28.7941 C 30.9359 28.5905 30.8315 28.2971 30.8315 27.9124 C 30.8315 27.5834 30.931 27.3116 31.1263 27.0912 C 31.3422 26.8491 31.6583 26.728 32.0695 26.7238 L 32.0695 26.7238 ZM 32.0737 27.2159 C 31.6837 27.2159 31.4943 27.4542 31.4943 27.9346 C 31.4943 28.1323 31.524 28.2798 31.5852 28.3835 C 31.6923 28.5515 31.853 28.6379 32.0781 28.6379 C 32.4595 28.6379 32.65 28.4003 32.65 27.9254 C 32.65 27.4542 32.4595 27.2208 32.0737 27.2159 L 32.0737 27.2159 ZM 34.5891 28.3657 L 35.2416 26.7583 L 35.9218 26.7583 L 34.9138 29.0961 L 34.2212 29.0961 L 33.2857 26.7583 L 33.9918 26.7583 L 34.5891 28.3657 ZM 37.7348 27.6741 C 37.7348 27.5104 37.7007 27.3975 37.632 27.3413 C 37.5665 27.2856 37.4367 27.2549 37.2419 27.2549 L 36.1512 27.2549 L 36.1512 26.7583 L 37.2419 26.7583 C 37.4367 26.7583 37.5709 26.7627 37.6439 26.767 C 37.718 26.7756 37.796 26.7881 37.8701 26.8146 C 38.2245 26.9485 38.3933 27.2684 38.3765 27.7784 L 38.3765 29.0961 L 37.0212 29.0961 C 36.7745 29.0961 36.6099 29.0885 36.5147 29.0751 C 36.4238 29.0621 36.3422 29.0318 36.268 28.9843 C 36.077 28.8546 35.9818 28.6644 35.9818 28.4045 C 35.9818 28.2452 36.0219 28.1069 36.0948 27.9821 C 36.1722 27.86 36.2723 27.7784 36.3973 27.7351 C 36.5061 27.6963 36.6879 27.6741 36.9438 27.6741 L 37.7348 27.6741 ZM 37.7348 28.1755 L 36.9871 28.1755 L 36.8827 28.1711 C 36.8052 28.1711 36.7485 28.1934 36.7052 28.2322 C 36.6624 28.2706 36.6403 28.3224 36.6403 28.3878 C 36.6403 28.4656 36.6667 28.5175 36.7177 28.5472 C 36.7696 28.5829 36.8605 28.5947 36.9871 28.5947 L 37.7348 28.5947 L 37.7348 28.1755 ZM 40.1204 29.0961 L 40.1204 29.3127 L 40.1679 29.3127 C 40.3065 29.3127 40.4022 29.3295 40.4617 29.3684 C 40.5483 29.429 40.5959 29.5289 40.5959 29.6628 C 40.5959 29.8228 40.5359 29.9216 40.4141 29.9659 C 40.3546 29.9913 40.2637 30 40.1371 30 L 39.7616 30 L 39.7616 29.7666 L 40.0938 29.7666 C 40.1463 29.7666 40.1804 29.7579 40.2069 29.7369 C 40.228 29.7191 40.2366 29.6844 40.2366 29.637 C 40.2366 29.5851 40.228 29.551 40.2069 29.5332 C 40.1848 29.5154 40.1414 29.5067 40.077 29.5067 L 39.8737 29.5067 L 39.8737 29.0961 C 39.674 29.0918 39.5143 29.0707 39.397 29.0318 C 39.285 28.9978 39.1767 28.941 39.0859 28.8546 C 38.8304 28.6255 38.7012 28.3138 38.7012 27.921 C 38.7012 27.5061 38.8218 27.1948 39.0648 26.9874 C 39.16 26.9053 39.272 26.8442 39.4056 26.8102 C 39.5446 26.7756 39.7172 26.7583 39.9342 26.7583 L 40.8129 26.7583 L 40.8129 27.2549 L 40.0419 27.2549 C 39.7827 27.2549 39.6053 27.3159 39.5013 27.4321 C 39.4056 27.5406 39.358 27.7049 39.358 27.9297 C 39.358 28.1798 39.437 28.3613 39.5923 28.4742 C 39.6572 28.5219 39.7259 28.5515 39.8049 28.5693 C 39.8779 28.5861 39.9818 28.5947 40.116 28.5947 L 40.8129 28.5947 L 40.8129 29.0961 L 40.1204 29.0961 ZM 42.8088 27.6741 C 42.8088 27.5104 42.778 27.3975 42.7093 27.3413 C 42.6439 27.2856 42.514 27.2549 42.3192 27.2549 L 41.2285 27.2549 L 41.2285 26.7583 L 42.3192 26.7583 C 42.514 26.7583 42.6481 26.7627 42.7212 26.767 C 42.7953 26.7756 42.8689 26.7881 42.9473 26.8146 C 43.3018 26.9485 43.4706 27.2684 43.4538 27.7784 L 43.4538 29.0961 L 42.0941 29.0961 C 41.8512 29.0961 41.6829 29.0885 41.592 29.0751 C 41.4968 29.0621 41.4146 29.0318 41.3453 28.9843 C 41.1543 28.8546 41.059 28.6644 41.059 28.4045 C 41.059 28.2452 41.0991 28.1069 41.1721 27.9821 C 41.2495 27.86 41.3496 27.7784 41.4746 27.7351 C 41.5834 27.6963 41.7651 27.6741 42.0211 27.6741 L 42.8088 27.6741 ZM 42.8088 28.1755 L 42.0644 28.1755 L 41.9556 28.1711 C 41.8826 28.1711 41.8257 28.1934 41.7825 28.2322 C 41.7392 28.2706 41.7175 28.3224 41.7175 28.3878 C 41.7175 28.4656 41.744 28.5175 41.796 28.5472 C 41.8469 28.5829 41.9377 28.5947 42.0644 28.5947 L 42.8088 28.5947 L 42.8088 28.1755 ZM 43.1069 25.9328 C 43.068 26.2823 42.9208 26.4558 42.6611 26.4558 C 42.5616 26.4558 42.4366 26.4207 42.2802 26.3607 C 42.1547 26.3088 42.0687 26.2823 42.0211 26.2823 C 41.9258 26.2823 41.8647 26.3342 41.8425 26.4471 L 41.553 26.4471 C 41.6012 26.0965 41.7516 25.9236 42.0075 25.9236 C 42.0898 25.9236 42.2148 25.9581 42.3841 26.0236 C 42.501 26.0711 42.587 26.0965 42.6439 26.0965 C 42.7391 26.0965 42.7953 26.0409 42.8164 25.9328 L 43.1069 25.9328 ZM 45.0115 26.7238 C 45.4438 26.7238 45.7652 26.8491 45.9724 27.0998 C 46.1628 27.3245 46.2581 27.6098 46.2581 27.9556 C 46.2581 28.3224 46.1364 28.6125 45.8994 28.833 C 45.6818 29.0318 45.3837 29.1312 45.0028 29.1312 C 44.6127 29.1312 44.3059 29.0189 44.0809 28.7941 C 43.8769 28.5905 43.7784 28.2971 43.7784 27.9124 C 43.7784 27.5834 43.8726 27.3116 44.0722 27.0912 C 44.2892 26.8491 44.6003 26.728 45.0115 26.7238 L 45.0115 26.7238 ZM 45.0158 27.2159 C 44.6306 27.2159 44.4352 27.4542 44.4352 27.9346 C 44.4352 28.1323 44.4709 28.2798 44.531 28.3835 C 44.6349 28.5515 44.7988 28.6379 45.025 28.6379 C 45.4048 28.6379 45.5958 28.4003 45.5958 27.9254 C 45.5958 27.4542 45.4048 27.2208 45.0158 27.2159 L 45.0158 27.2159 ZM 49.8506 27.6741 L 49.8506 28.1755 L 48.491 28.1755 C 48.5045 28.3273 48.5565 28.4353 48.643 28.4996 C 48.7291 28.5651 48.8676 28.5947 49.0629 28.5947 L 49.8506 28.5947 L 49.8506 29.0961 L 48.9942 29.0961 C 48.808 29.0961 48.6561 29.0793 48.5386 29.0453 C 48.4223 29.014 48.3092 28.9578 48.2064 28.8805 C 47.9246 28.6601 47.7817 28.3316 47.7817 27.8989 C 47.7817 27.6146 47.8553 27.3678 48.0068 27.1554 C 48.1112 27.0139 48.2318 26.9096 48.379 26.8491 C 48.5219 26.7881 48.7128 26.7583 48.9466 26.7583 L 49.8506 26.7583 L 49.8506 27.2549 L 48.9942 27.2549 C 48.8157 27.2549 48.695 27.2856 48.6219 27.3456 C 48.5521 27.4066 48.5089 27.5148 48.491 27.6741 L 49.8506 27.6741 ZM 50.2618 26.7583 L 52.6296 26.7583 C 52.8459 26.7583 53.011 26.7713 53.123 26.8059 C 53.2361 26.8356 53.3264 26.8918 53.4 26.9739 C 53.5428 27.1257 53.6127 27.338 53.6127 27.6055 L 53.6127 29.0961 L 52.9709 29.0961 L 52.9709 27.7087 C 52.9709 27.5969 52.9634 27.5148 52.9542 27.4715 C 52.9455 27.4288 52.9233 27.3889 52.8892 27.3542 C 52.8205 27.29 52.7204 27.2549 52.5862 27.2549 L 52.2443 27.2549 L 52.2443 29.0961 L 51.5994 29.0961 L 51.5994 27.2549 L 50.9068 27.2549 L 50.9068 29.0961 L 50.2618 29.0961 L 50.2618 26.7583 ZM 56.1133 27.9772 L 56.1133 29.0961 L 55.4343 29.0961 L 55.4343 25.8939 L 57.0321 25.8939 C 57.3259 25.8939 57.5342 25.9149 57.6592 25.955 C 57.8707 26.0236 58.0358 26.1705 58.1569 26.3953 C 58.2479 26.559 58.2955 26.7405 58.2955 26.935 C 58.2955 27.0998 58.2652 27.2505 58.2046 27.3975 C 58.1434 27.545 58.0618 27.6622 57.9573 27.7562 C 57.8632 27.8389 57.7636 27.8989 57.6548 27.9297 C 57.5461 27.9599 57.4 27.9772 57.2096 27.9772 L 56.1133 27.9772 ZM 56.1133 27.4066 L 57.0445 27.4066 C 57.2096 27.4066 57.3259 27.3807 57.3957 27.3289 C 57.4941 27.2473 57.5461 27.109 57.5461 26.9139 C 57.5461 26.6973 57.4688 26.559 57.3167 26.499 C 57.2615 26.4768 57.1739 26.4639 57.0576 26.4639 L 56.1133 26.4639 L 56.1133 27.4066 ZM 58.5991 26.7583 L 59.5508 26.7583 C 59.7461 26.7583 59.8964 26.7713 60.0052 26.7967 C 60.1135 26.8231 60.2043 26.8707 60.273 26.935 C 60.3477 27.0004 60.3953 27.0776 60.4207 27.1732 C 60.4505 27.2684 60.464 27.4066 60.464 27.5834 L 60.464 27.8124 L 59.8456 27.8124 L 59.8456 27.6876 C 59.8456 27.5196 59.8148 27.4066 59.758 27.3456 C 59.6978 27.2856 59.5897 27.2549 59.43 27.2549 L 59.244 27.2549 L 59.244 29.0961 L 58.5991 29.0961 L 58.5991 26.7583 ZM 61.8535 26.7238 C 62.2869 26.7238 62.6066 26.8491 62.8096 27.0998 C 63.0005 27.3245 63.0956 27.6098 63.0956 27.9556 C 63.0956 28.3224 62.9794 28.6125 62.7408 28.833 C 62.5206 29.0318 62.2214 29.1312 61.8442 29.1312 C 61.4509 29.1312 61.1431 29.0189 60.9228 28.7941 C 60.7199 28.5905 60.6155 28.2971 60.6155 27.9124 C 60.6155 27.5834 60.7156 27.3116 60.9105 27.0912 C 61.1311 26.8491 61.4423 26.728 61.8535 26.7238 L 61.8535 26.7238 ZM 61.8577 27.2159 C 61.4677 27.2159 61.2783 27.4542 61.2783 27.9346 C 61.2783 28.1323 61.308 28.2798 61.3724 28.3835 C 61.4769 28.5515 61.642 28.6379 61.8621 28.6379 C 62.2435 28.6379 62.4372 28.4003 62.4372 27.9254 C 62.4372 27.4542 62.2435 27.2208 61.8577 27.2159 L 61.8577 27.2159 ZM 64.2515 26.7583 L 64.2515 28.9103 C 64.2515 29.1361 64.2303 29.3085 64.1871 29.4381 C 64.1469 29.5629 64.0739 29.6672 63.9701 29.7444 C 63.8267 29.8574 63.6065 29.9184 63.3041 29.9303 L 63.0221 29.9303 L 63.0221 29.4424 L 63.1818 29.4424 C 63.3727 29.4381 63.4901 29.4036 63.541 29.3339 C 63.5674 29.3041 63.5854 29.2609 63.5929 29.2134 C 63.6022 29.1658 63.6065 29.0837 63.6065 28.9622 L 63.6065 26.7583 L 64.2515 26.7583 ZM 63.6065 26.499 L 63.6065 25.8939 L 64.2515 25.8939 L 64.2515 26.499 L 63.6065 26.499 ZM 66.6802 27.6741 L 66.6802 28.1755 L 65.3205 28.1755 C 65.3341 28.3273 65.386 28.4353 65.4725 28.4996 C 65.5587 28.5651 65.6971 28.5947 65.8925 28.5947 L 66.6802 28.5947 L 66.6802 29.0961 L 65.8227 29.0961 C 65.6365 29.0961 65.4845 29.0793 65.368 29.0453 C 65.2507 29.014 65.1388 28.9578 65.035 28.8805 C 64.753 28.6601 64.6102 28.3316 64.6102 27.8989 C 64.6102 27.6146 64.6843 27.3678 64.8351 27.1554 C 64.9396 27.0139 65.0614 26.9096 65.2075 26.8491 C 65.3503 26.7881 65.5413 26.7583 65.775 26.7583 L 66.6802 26.7583 L 66.6802 27.2549 L 65.8227 27.2549 C 65.6451 27.2549 65.5245 27.2856 65.4504 27.3456 C 65.3817 27.4066 65.3384 27.5148 65.3205 27.6741 L 66.6802 27.6741 ZM 67.2684 26.7583 L 67.2684 25.8939 L 67.9133 25.8939 L 67.9133 26.7583 L 68.5106 26.7583 L 68.5106 27.2549 L 67.9133 27.2549 L 67.9133 28.1069 C 67.9133 28.3063 67.9301 28.431 67.9658 28.4829 C 68.0209 28.5564 68.1161 28.5947 68.2546 28.5947 L 68.5106 28.5947 L 68.5106 29.0961 L 68.0431 29.0961 C 67.7618 29.0961 67.5665 29.0275 67.4457 28.8936 C 67.3284 28.7595 67.2684 28.5348 67.2684 28.2188 L 67.2684 27.2549 L 66.8621 27.2549 L 66.8621 26.7583 L 67.2684 26.7583 ZM 69.8692 26.7238 C 70.3026 26.7238 70.6229 26.8491 70.8312 27.0998 C 71.0173 27.3245 71.1125 27.6098 71.1125 27.9556 C 71.1125 28.3224 70.9951 28.6125 70.7571 28.833 C 70.5363 29.0318 70.2371 29.1312 69.8616 29.1312 C 69.4672 29.1312 69.1599 29.0189 68.9397 28.7941 C 68.7357 28.5905 68.6318 28.2971 68.6318 27.9124 C 68.6318 27.5834 68.7313 27.3116 68.9261 27.0912 C 69.1469 26.8491 69.458 26.728 69.8692 26.7238 L 69.8692 26.7238 ZM 69.8735 27.2159 C 69.4845 27.2159 69.2941 27.4542 69.2941 27.9346 C 69.2941 28.1323 69.3238 28.2798 69.3893 28.3835 C 69.4938 28.5515 69.6576 28.6379 69.8784 28.6379 C 70.2593 28.6379 70.4542 28.4003 70.4542 27.9254 C 70.4542 27.4542 70.2593 27.2208 69.8735 27.2159 L 69.8735 27.2159 ZM 73.5062 26.7583 L 73.5062 27.2549 L 72.3624 27.2549 C 72.2282 27.2549 72.1465 27.264 72.1119 27.277 C 72.0377 27.3024 72.0037 27.3634 72.0037 27.4629 C 72.0037 27.545 72.0377 27.6098 72.1075 27.653 C 72.1465 27.679 72.2504 27.6919 72.4192 27.6919 L 72.8001 27.6919 C 73.043 27.6919 73.2367 27.7438 73.3763 27.847 C 73.5316 27.9642 73.6133 28.1323 73.6133 28.3571 C 73.6133 28.5261 73.5657 28.6812 73.4705 28.8239 C 73.3973 28.9324 73.3109 29.0054 73.2113 29.0453 C 73.1069 29.0793 72.9387 29.0961 72.7048 29.0961 L 71.3717 29.0961 L 71.3717 28.5947 L 72.5187 28.5947 C 72.6616 28.5947 72.7568 28.5947 72.8088 28.5905 C 72.9256 28.578 72.9819 28.5132 72.9819 28.397 C 72.9819 28.3014 72.9429 28.2322 72.8688 28.1976 C 72.8298 28.1755 72.7346 28.1679 72.5885 28.1679 L 72.1984 28.1679 C 72.0463 28.1679 71.9257 28.1587 71.8441 28.1415 C 71.7607 28.1199 71.6876 28.0847 71.619 28.0372 C 71.5313 27.9729 71.4626 27.8913 71.4107 27.7827 C 71.363 27.6741 71.3376 27.5623 71.3376 27.4364 C 71.3376 27.203 71.4236 27.0171 71.5925 26.8788 C 71.6963 26.7967 71.8738 26.7583 72.1254 26.7583 L 73.5062 26.7583 ZM 75.3278 29.0961 L 75.3278 25.8939 L 76.0068 25.8939 L 76.0068 29.0961 L 75.3278 29.0961 ZM 76.5312 26.7583 L 77.7735 26.7583 C 77.9595 26.7583 78.0981 26.7713 78.1976 26.7967 C 78.2972 26.8231 78.3881 26.875 78.4655 26.9442 C 78.6311 27.0955 78.7127 27.3289 78.7127 27.6579 L 78.7127 29.0961 L 78.0678 29.0961 L 78.0678 27.5834 C 78.0678 27.4672 78.0413 27.3856 77.9904 27.3332 C 77.9385 27.2813 77.8551 27.2549 77.7345 27.2549 L 77.1761 27.2549 L 77.1761 29.0961 L 76.5312 29.0961 L 76.5312 26.7583 ZM 80.7606 26.7583 L 80.7606 25.8939 L 81.4055 25.8939 L 81.4055 29.0961 L 80.2975 29.0961 C 80.0714 29.0961 79.9031 29.0793 79.791 29.0453 C 79.514 28.9578 79.3101 28.7898 79.1759 28.5348 C 79.085 28.3613 79.0374 28.1544 79.0374 27.9124 C 79.0374 27.5104 79.1716 27.1997 79.44 26.9739 C 79.6168 26.8323 79.8555 26.7583 80.1547 26.7583 L 80.7606 26.7583 ZM 80.7606 28.5947 L 80.7606 27.2549 L 80.2975 27.2549 C 80.0892 27.2549 79.9371 27.3245 79.83 27.4629 C 79.7391 27.579 79.6915 27.7308 79.6915 27.9124 C 79.6915 28.1755 79.7689 28.3657 79.9203 28.4786 C 80.0247 28.5564 80.1498 28.5947 80.2975 28.5947 L 80.7606 28.5947 ZM 83.4518 28.5947 L 83.4518 26.7583 L 84.0967 26.7583 L 84.0967 29.0961 L 82.829 29.0961 C 82.6429 29.0961 82.5045 29.0837 82.4049 29.0573 C 82.3053 29.0318 82.2144 28.98 82.1365 28.9103 C 81.9764 28.7595 81.8898 28.5219 81.8898 28.1934 L 81.8898 26.7583 L 82.5347 26.7583 L 82.5347 28.262 C 82.5347 28.3657 82.5612 28.4478 82.6165 28.5088 C 82.6732 28.5651 82.7474 28.5947 82.8459 28.5947 L 83.4518 28.5947 ZM 86.6468 26.7583 L 86.6468 27.2549 L 85.5041 27.2549 C 85.3748 27.2549 85.2881 27.264 85.2531 27.277 C 85.1794 27.3024 85.1454 27.3634 85.1454 27.4629 C 85.1454 27.545 85.1794 27.6098 85.2482 27.653 C 85.2881 27.679 85.391 27.6919 85.5609 27.6919 L 85.9407 27.6919 C 86.1837 27.6919 86.3784 27.7438 86.517 27.847 C 86.6732 27.9642 86.7556 28.1323 86.7556 28.3571 C 86.7556 28.5261 86.7075 28.6812 86.6121 28.8239 C 86.5381 28.9324 86.4515 29.0054 86.3519 29.0453 C 86.2491 29.0793 86.0792 29.0961 85.8455 29.0961 L 84.5123 29.0961 L 84.5123 28.5947 L 85.6594 28.5947 C 85.8022 28.5947 85.8973 28.5947 85.95 28.5905 C 86.0673 28.578 86.1225 28.5132 86.1225 28.397 C 86.1225 28.3014 86.0841 28.2322 86.0105 28.1976 C 85.9722 28.1755 85.8763 28.1679 85.7291 28.1679 L 85.3391 28.1679 C 85.1886 28.1679 85.0712 28.1587 84.9846 28.1415 C 84.9067 28.1199 84.8284 28.0847 84.7595 28.0372 C 84.673 27.9729 84.6032 27.8913 84.5513 27.7827 C 84.5037 27.6741 84.4781 27.5623 84.4781 27.4364 C 84.4781 27.203 84.5648 27.0171 84.7341 26.8788 C 84.8375 26.7967 85.0144 26.7583 85.266 26.7583 L 86.6468 26.7583 ZM 87.2738 26.7583 L 87.2738 25.8939 L 87.9188 25.8939 L 87.9188 26.7583 L 88.5129 26.7583 L 88.5129 27.2549 L 87.9188 27.2549 L 87.9188 28.1069 C 87.9188 28.3063 87.9366 28.431 87.9707 28.4829 C 88.0275 28.5564 88.1228 28.5947 88.2612 28.5947 L 88.5129 28.5947 L 88.5129 29.0961 L 88.0449 29.0961 C 87.7678 29.0961 87.5687 29.0275 87.4525 28.8936 C 87.3307 28.7595 87.2738 28.5348 87.2738 28.2188 L 87.2738 27.2549 L 86.867 27.2549 L 86.867 26.7583 L 87.2738 26.7583 ZM 88.8375 26.7583 L 89.7936 26.7583 C 89.9889 26.7583 90.1349 26.7713 90.2437 26.7967 C 90.3519 26.8231 90.4429 26.8707 90.5115 26.935 C 90.5856 27.0004 90.6339 27.0776 90.6636 27.1732 C 90.689 27.2684 90.7025 27.4066 90.7025 27.5834 L 90.7025 27.8124 L 90.0884 27.8124 L 90.0884 27.6876 C 90.0884 27.5196 90.0576 27.4066 89.9974 27.3456 C 89.9407 27.2856 89.8282 27.2549 89.6686 27.2549 L 89.4825 27.2549 L 89.4825 29.0961 L 88.8375 29.0961 L 88.8375 26.7583 ZM 90.9363 26.7583 L 91.5812 26.7583 L 91.5812 29.0961 L 90.9363 29.0961 L 90.9363 26.7583 ZM 90.9363 26.5157 L 90.9363 25.8939 L 91.5812 25.8939 L 91.5812 26.5157 L 90.9363 26.5157 ZM 93.7151 27.6741 C 93.7151 27.5104 93.6804 27.3975 93.6156 27.3413 C 93.5511 27.2856 93.416 27.2549 93.2265 27.2549 L 92.1352 27.2549 L 92.1352 26.7583 L 93.2265 26.7583 C 93.416 26.7583 93.5511 26.7627 93.6285 26.767 C 93.7021 26.7756 93.7762 26.7881 93.8536 26.8146 C 94.208 26.9485 94.3779 27.2684 94.36 27.7784 L 94.36 29.0961 L 93.0004 29.0961 C 92.7591 29.0961 92.5892 29.0885 92.4983 29.0751 C 92.403 29.0621 92.3214 29.0318 92.2527 28.9843 C 92.0616 28.8546 91.9664 28.6644 91.9664 28.4045 C 91.9664 28.2452 92.001 28.1069 92.0784 27.9821 C 92.1574 27.86 92.2527 27.7784 92.3777 27.7351 C 92.4863 27.6963 92.6725 27.6741 92.9274 27.6741 L 93.7151 27.6741 ZM 93.7151 28.1755 L 92.9706 28.1755 L 92.8619 28.1711 C 92.7888 28.1711 92.7277 28.1934 92.6893 28.2322 C 92.646 28.2706 92.6249 28.3224 92.6249 28.3878 C 92.6249 28.4656 92.6503 28.5175 92.7023 28.5472 C 92.7542 28.5829 92.8451 28.5947 92.9706 28.5947 L 93.7151 28.5947 L 93.7151 28.1755 ZM 94.8411 26.7583 L 95.486 26.7583 L 95.486 29.0961 L 94.8411 29.0961 L 94.8411 26.7583 ZM 94.8411 26.5157 L 94.8411 25.8939 L 95.486 25.8939 L 95.486 26.5157 L 94.8411 26.5157 ZM 98.0344 26.7583 L 98.0344 27.2549 L 96.8922 27.2549 C 96.7623 27.2549 96.6758 27.264 96.6417 27.277 C 96.5676 27.3024 96.533 27.3634 96.533 27.4629 C 96.533 27.545 96.5676 27.6098 96.6373 27.653 C 96.6758 27.679 96.7802 27.6919 96.9485 27.6919 L 97.3299 27.6919 C 97.5712 27.6919 97.7665 27.7438 97.905 27.847 C 98.0609 27.9642 98.1431 28.1323 98.1431 28.3571 C 98.1431 28.5261 98.0955 28.6812 98.0002 28.8239 C 97.9266 28.9324 97.8407 29.0054 97.7405 29.0453 C 97.6367 29.0793 97.4684 29.0961 97.2341 29.0961 L 95.9016 29.0961 L 95.9016 28.5947 L 97.048 28.5947 C 97.1914 28.5947 97.2866 28.5947 97.3375 28.5905 C 97.4549 28.578 97.5112 28.5132 97.5112 28.397 C 97.5112 28.3014 97.4727 28.2322 97.3987 28.1976 C 97.3597 28.1755 97.2644 28.1679 97.1167 28.1679 L 96.7283 28.1679 C 96.5763 28.1679 96.4556 28.1587 96.3723 28.1415 C 96.2948 28.1199 96.2169 28.0847 96.1472 28.0372 C 96.0611 27.9729 95.9924 27.8913 95.9399 27.7827 C 95.8923 27.6741 95.8658 27.5623 95.8658 27.4364 C 95.8658 27.203 95.9523 27.0171 96.1217 26.8788 C 96.2261 26.7967 96.4031 26.7583 96.6536 26.7583 L 98.0344 26.7583 Z" fill="#ffffff"/>
		<path d="M 38.311 6.673 L 40.0208 6.6854 L 40.0862 6.673 L 40.1371 6.6465 L 40.1804 6.599 L 40.2026 6.539 L 40.3113 6.0721 L 40.393 5.5967 L 40.4542 5.1207 L 40.4542 5.0608 L 40.4233 4.996 L 40.3843 4.9528 L 40.3276 4.9225 L 38.7136 4.3519 L 38.6611 4.3174 L 38.6227 4.2742 L 38.5967 4.2136 L 38.5269 3.9635 L 38.4366 3.7123 L 38.3246 3.4789 L 38.3067 3.4135 L 38.3067 3.3535 L 38.3322 3.293 L 39.194 1.8191 L 39.2195 1.7581 L 39.2195 1.6981 L 39.2032 1.6376 L 39.1632 1.5857 L 38.8131 1.2567 L 38.4453 0.9503 L 38.0594 0.6602 L 38.0043 0.6305 L 37.9431 0.6218 L 37.8776 0.6348 L 37.8257 0.6694 L 36.5283 1.7802 L 36.4714 1.8099 L 36.4108 1.8234 L 36.3465 1.8191 L 36.0948 1.7505 L 35.8357 1.7062 L 35.5754 1.6808 L 35.5111 1.6716 L 35.4586 1.6376 L 35.4202 1.5857 L 34.5756 0.0983 L 34.5372 0.0465 L 34.4804 0.0118 L 34.4193 0 L 34.3554 0.0076 L 33.8998 0.1459 L 33.4453 0.3107 L 33.0001 0.5009 L 32.9525 0.5354 L 32.9135 0.5873 L 32.8913 0.6472 L 32.8956 0.7083 L 33.2084 2.3896 L 33.2084 2.4583 L 33.1862 2.515 L 33.1472 2.5668 L 32.9654 2.7527 L 32.8004 2.9553 L 32.6456 3.1677 L 32.6067 3.2152 L 32.5499 3.2406 L 32.485 3.2541 L 30.7752 3.2406 L 30.7151 3.2498 L 30.6589 3.2795 L 30.6156 3.327 L 30.5891 3.3838 L 30.4847 3.8506 L 30.3981 4.3309 L 30.3386 4.8052 L 30.3462 4.8663 L 30.3727 4.9268 L 30.4116 4.9744 L 30.4679 5.0046 L 32.0781 5.5757 L 32.1344 5.6053 L 32.1733 5.653 L 32.2036 5.7091 L 32.2686 5.9641 L 32.3594 6.2105 L 32.4714 6.4482 L 32.4893 6.5082 L 32.4893 6.5735 L 32.4682 6.634 L 31.6014 8.1079 L 31.576 8.1636 L 31.576 8.229 L 31.5928 8.2895 L 31.6328 8.3419 L 31.9828 8.6693 L 32.3508 8.9767 L 32.7366 9.2701 L 32.7917 9.2922 L 32.8528 9.3052 L 32.9178 9.2922 L 32.9703 9.2577 L 34.2688 8.1469 L 34.324 8.116 L 34.3851 8.0993 L 34.4506 8.1079 L 34.7011 8.1722 L 34.9614 8.2198 L 35.2205 8.2419 L 35.2849 8.2587 L 35.3412 8.2895 L 35.3769 8.3419 L 36.2204 9.8276 L 36.2632 9.8795 L 36.3157 9.9141 L 36.3719 9.9227 L 36.4374 9.9185 L 36.8962 9.7758 L 37.3502 9.6121 L 37.7916 9.4263 L 37.8436 9.3873 L 37.8825 9.3398 L 37.9042 9.2787 L 37.8998 9.2193 L 37.5839 7.5331 L 37.5887 7.472 L 37.6055 7.4077 L 37.6483 7.3602 L 37.8257 7.17 L 37.9994 6.9707 L 38.1503 6.7551 L 38.311 6.673 ZM 37.3978 4.5853 L 37.4145 4.7058 L 37.428 4.8274 L 37.428 4.9528 L 37.4324 5.0732 L 37.4189 5.1991 L 37.4026 5.3152 L 37.3761 5.4374 L 37.3458 5.5579 L 37.3025 5.674 L 37.2592 5.7869 L 37.2073 5.8998 L 37.1467 6.0025 L 37.0823 6.1111 L 37.0082 6.2062 L 36.926 6.3055 L 36.8437 6.3964 L 36.7577 6.4785 L 36.6624 6.5557 L 36.5624 6.6298 L 36.4585 6.6984 L 36.3541 6.7594 L 36.2469 6.8156 L 36.1295 6.8632 L 36.0126 6.902 L 35.8953 6.9366 L 35.7746 6.962 L 35.6572 6.9841 L 35.5322 6.9928 L 35.411 6.9971 L 35.2892 6.9928 L 35.1642 6.9841 L 35.0431 6.9663 L 34.9213 6.9409 L 34.805 6.9064 L 34.6876 6.868 L 34.5713 6.8237 L 34.4625 6.7681 L 34.3554 6.7075 L 34.2553 6.6422 L 34.1514 6.5692 L 34.0562 6.4963 L 33.9696 6.4088 L 33.8831 6.318 L 33.8057 6.2272 L 33.7316 6.1284 L 33.6628 6.0247 L 33.6017 5.9209 L 33.5498 5.8091 L 33.5021 5.6962 L 33.4589 5.5789 L 33.4291 5.4584 L 33.3978 5.3417 L 33.381 5.2202 L 33.368 5.0997 L 33.3636 4.9744 L 33.368 4.8484 L 33.3766 4.728 L 33.3934 4.6075 L 33.4199 4.4854 L 33.4502 4.3693 L 33.4886 4.2477 L 33.5406 4.1401 L 33.5881 4.0278 L 33.6494 3.9159 L 33.7878 3.7166 L 33.8701 3.6172 L 33.9474 3.5307 L 34.0394 3.4443 L 34.1379 3.3659 L 34.2331 3.293 L 34.4414 3.1633 L 34.5534 3.1115 L 34.6665 3.0639 L 34.7828 3.025 L 34.9002 2.9905 L 35.0165 2.9597 L 35.1388 2.9429 L 35.2638 2.9342 L 35.3845 2.9256 L 35.5111 2.9299 L 35.6317 2.9386 L 35.7524 2.9597 L 35.8698 2.9818 L 35.991 3.0164 L 36.1084 3.0504 L 36.2204 3.1023 L 36.3286 3.1547 L 36.4406 3.2152 L 36.545 3.2795 L 36.6403 3.3492 L 36.7355 3.4313 L 36.8307 3.5172 L 36.9124 3.6036 L 36.9914 3.6987 L 37.0645 3.7938 L 37.1332 3.8981 L 37.1943 4.0067 L 37.2506 4.1136 L 37.3372 4.347 L 37.3669 4.4644 L 37.3978 4.5853 ZM 32.6191 14.3579 L 32.6667 14.6167 L 32.6932 14.8636 L 32.7009 15.1224 L 32.7052 15.3779 L 32.6932 15.6367 L 32.6667 15.8879 L 32.6235 16.1425 L 32.5759 16.3893 L 32.5115 16.6406 L 32.4325 16.8859 L 32.3416 17.1193 L 32.2377 17.3531 L 32.1214 17.5823 L 32.0007 17.8021 L 31.8574 18.0237 L 31.7101 18.2306 L 31.5495 18.4294 L 31.3769 18.6196 L 31.1994 18.7968 L 31.009 18.9697 L 30.8137 19.1301 L 30.6064 19.2847 L 30.3906 19.423 L 30.1736 19.5527 L 29.9442 19.6699 L 29.7148 19.7784 L 29.4718 19.8693 L 29.2305 19.9465 L 28.9833 20.0108 L 28.736 20.0719 L 28.4811 20.1059 L 28.2252 20.1367 L 27.9747 20.1534 L 27.7188 20.1534 L 27.464 20.141 L 27.2081 20.1145 L 26.9575 20.0762 L 26.7059 20.0238 L 26.4603 19.9551 L 26.2174 19.8768 L 25.975 19.786 L 25.7456 19.6866 L 25.5162 19.5748 L 25.2911 19.4451 L 25.0795 19.3068 L 24.8712 19.1555 L 24.6716 18.9951 L 24.4811 18.8222 L 24.2993 18.6455 L 24.1268 18.4597 L 23.9671 18.2603 L 23.8151 18.0491 L 23.6766 17.8373 L 23.5468 17.6163 L 23.4293 17.3872 L 23.3265 17.1538 L 23.2313 16.9166 L 23.1572 16.6703 L 23.0884 16.4277 L 23.0273 16.1732 L 22.9927 15.9225 L 22.9662 15.6719 L 22.95 15.4168 L 22.9451 15.1618 L 22.9586 14.9019 L 22.984 14.6518 L 23.0273 14.3962 L 23.0793 14.151 L 23.1404 13.8997 L 23.2178 13.6528 L 23.3087 13.4194 L 23.4131 13.186 L 23.5294 12.9569 L 23.6544 12.7322 L 23.7929 12.5166 L 23.9406 12.3097 L 24.1008 12.1104 L 24.2739 11.9202 L 24.4514 11.7429 L 24.6418 11.5657 L 24.8414 11.4058 L 25.0438 11.254 L 25.2613 11.1157 L 25.4772 10.986 L 25.7066 10.8699 L 25.9404 10.7618 L 26.1784 10.671 L 26.4203 10.5933 L 26.6675 10.5236 L 26.9142 10.4673 L 27.1691 10.4285 L 27.425 10.4031 L 27.6755 10.3853 L 27.9363 10.3853 L 28.1863 10.3987 L 28.4427 10.4241 L 28.6927 10.4641 L 28.9443 10.5149 L 29.1948 10.5803 L 29.4329 10.6575 L 29.6758 10.7526 L 29.9052 10.8525 L 30.1346 10.965 L 30.3597 11.0946 L 30.5723 11.2329 L 30.7839 11.3848 L 30.9786 11.5441 L 31.1696 11.7164 L 31.3514 11.8948 L 31.524 12.0795 L 31.6837 12.2783 L 31.8357 12.4912 L 31.9742 12.7025 L 32.1035 12.9224 L 32.2209 13.1514 L 32.3254 13.3849 L 32.4206 13.6231 L 32.5023 13.8695 L 32.5667 14.111 L 32.6191 14.3579 ZM 32.6797 9.3608 L 32.7885 9.4084 L 32.9005 9.3787 L 34.2212 8.5785 L 34.2986 8.5532 L 34.3809 8.5661 L 34.4539 8.6093 L 34.9435 9.1361 L 35.3937 9.7029 L 35.4277 9.7758 L 35.4277 9.8584 L 35.3893 9.9363 L 34.3987 11.1243 L 34.3597 11.2286 L 34.3851 11.3447 L 34.7141 11.9498 L 34.9825 12.5863 L 35.0555 12.6771 L 35.1642 12.7111 L 36.7052 12.6771 L 36.7917 12.6932 L 36.8561 12.7457 L 36.8918 12.8186 L 37.0558 13.5188 L 37.164 14.2368 L 37.1553 14.319 L 37.1121 14.3876 L 37.039 14.4352 L 35.5884 14.9673 L 35.5019 15.0403 L 35.4711 15.1532 L 35.45 15.8404 L 35.3683 16.5276 L 35.3845 16.6438 L 35.4635 16.7264 L 36.8129 17.4705 L 36.8783 17.5212 L 36.9124 17.5995 L 36.9037 17.686 L 36.6922 18.3732 L 36.4282 19.0469 L 36.3806 19.1123 L 36.3065 19.1512 L 36.2247 19.1599 L 34.7054 18.8962 L 34.5891 18.9086 L 34.5058 18.9913 L 34.1422 19.5834 L 33.7316 20.1281 L 33.684 20.2399 L 33.7148 20.3485 L 34.5101 21.6749 L 34.5415 21.7532 L 34.528 21.8353 L 34.4847 21.9039 L 33.9561 22.3972 L 33.3934 22.8467 L 33.3204 22.8807 L 33.2338 22.8765 L 33.1607 22.8381 L 31.9742 21.8531 L 31.8666 21.8056 L 31.7535 21.8353 L 31.1431 22.1595 L 30.5112 22.4318 L 30.4203 22.5048 L 30.3862 22.6133 L 30.4203 24.1569 L 30.4025 24.2385 L 30.3549 24.3071 L 30.2775 24.346 L 29.5762 24.5065 L 28.8626 24.6151 L 28.7793 24.6058 L 28.7062 24.5626 L 28.663 24.4886 L 28.13 23.0413 L 28.0613 22.9504 L 27.9449 22.9153 L 27.2557 22.8943 L 26.5723 22.8165 L 26.4603 22.8289 L 26.3738 22.9121 L 25.6335 24.2639 L 25.5768 24.3292 L 25.5026 24.3595 L 25.4161 24.3595 L 24.7284 24.1434 L 24.058 23.8802 L 23.9882 23.8328 L 23.9493 23.7582 L 23.9449 23.6722 L 24.2041 22.1509 L 24.1917 22.038 L 24.1099 21.9515 L 23.5251 21.5933 L 22.9711 21.1783 L 22.8633 21.1302 L 22.7503 21.1616 L 21.4307 21.9601 L 21.3517 21.9866 L 21.27 21.9736 L 21.2012 21.9304 L 20.7067 21.4026 L 20.2614 20.8374 L 20.2225 20.7585 L 20.2274 20.677 L 20.2614 20.604 L 21.2521 19.4143 L 21.2922 19.3112 L 21.2656 19.1939 L 20.9453 18.5845 L 20.6727 17.954 L 20.5953 17.8632 L 20.4865 17.8286 L 18.9451 17.8632 L 18.8633 17.8454 L 18.7946 17.7946 L 18.7589 17.7206 L 18.595 17.0155 L 18.4911 16.3029 L 18.4954 16.2208 L 18.5387 16.1511 L 18.6129 16.1035 L 20.0623 15.5681 L 20.1484 15.4984 L 20.1841 15.3866 L 20.2052 14.6993 L 20.2869 14.0121 L 20.2657 13.8954 L 20.1917 13.8132 L 18.8374 13.0698 L 18.7768 13.0131 L 18.7421 12.9402 L 18.747 12.8538 L 18.9586 12.1671 L 19.2221 11.4917 L 19.2697 11.4274 L 19.3438 11.3848 L 19.4261 11.3799 L 20.9453 11.6436 L 21.0627 11.6257 L 21.1445 11.5441 L 21.508 10.9563 L 21.9193 10.4073 L 21.9669 10.2993 L 21.9371 10.1875 L 21.1401 8.8638 L 21.1104 8.7865 L 21.1223 8.7044 L 21.1656 8.6348 L 21.6942 8.1425 L 22.2574 7.6887 L 22.3348 7.6579 L 22.417 7.6579 L 22.4954 7.6979 L 23.6766 8.6871 L 23.7897 8.7303 L 23.8973 8.7044 L 24.5076 8.3802 L 25.1396 8.1079 L 25.2348 8.0339 L 25.2657 7.927 L 25.2299 6.3834 L 25.2478 6.3013 L 25.2997 6.2316 L 25.3734 6.1884 L 26.0745 6.0289 L 26.7893 5.9209 L 26.8759 5.9338 L 26.9446 5.9771 L 26.9879 6.05 L 27.5208 7.4985 L 27.5895 7.585 L 27.7069 7.6238 L 28.3903 7.6454 L 29.0785 7.7233 L 29.1948 7.7098 L 29.2781 7.6282 L 30.0215 6.2748 L 30.0735 6.2105 L 30.1525 6.1765 L 30.2342 6.1797 L 30.9224 6.3964 L 31.5928 6.66 L 31.6625 6.7075 L 31.7015 6.7805 L 31.7058 6.868 L 31.4467 8.3894 L 31.4586 8.5012 L 31.5419 8.5872 L 32.1257 8.9459 L 32.6797 9.3608 Z" fill="#ffffff"/>
	</g>
</svg>