<?xml version="1.0" standalone="no"?>
<!-- Generator: Adobe Fireworks 10, Export SVG Extension by Aaron Beall (http://fireworks.abeall.com) . Version: 0.6.1  -->
<!DOCTYPE svg PUBLIC "-//W3C//DTD SVG 1.1//EN" "http://www.w3.org/Graphics/SVG/1.1/DTD/svg11.dtd">
<svg id="Untitled-Page%201" viewBox="0 0 72 72" style="background-color:#ffffff00" version="1.1"
	xmlns="http://www.w3.org/2000/svg" xmlns:xlink="http://www.w3.org/1999/xlink" xml:space="preserve"
	x="0px" y="0px" width="72px" height="72px"
>
	<g id="Layer%201">
		<path d="M 72 0 L 36 0 C 53.6731 0 68 4 68 4 C 68 4 72 18.3269 72 36 L 72 0 ZM 72 72 L 72 36 C 72 53.6731 68 68 68 68 C 68 68 53.6731 72 36 72 L 72 72 ZM 0 72 L 36 72 C 18.3269 72 4 68 4 68 C 4 68 0 53.6731 0 36 L 0 72 ZM 0 0 L 0 36 C 0 18.3269 4 4 4 4 C 4 4 18.3269 0 36 0 L 0 0 Z" fill="#ffffff"/>
	</g>
</svg>